<svg width="172" height="29" viewBox="0 0 172 29" fill="none" xmlns="http://www.w3.org/2000/svg">
    <g filter="url(#filter0_d_2271_623)">
        <path
            d="M1.77561 6.87109L6.94554 20.3129C7.32624 21.3027 8.78325 21.0971 8.87513 20.0405L9.42723 13.6913C9.46931 13.2075 9.85298 12.8238 10.3368 12.7817L16.3648 12.2576C17.4379 12.1642 17.6252 10.6733 16.6085 10.3175L3.03931 5.56825C2.23504 5.28676 1.46972 6.07578 1.77561 6.87109Z"
            fill="#4A4AFF" />
        <path
            d="M1.77561 6.87109L6.94554 20.3129C7.32624 21.3027 8.78325 21.0971 8.87513 20.0405L9.42723 13.6913C9.46931 13.2075 9.85298 12.8238 10.3368 12.7817L16.3648 12.2576C17.4379 12.1642 17.6252 10.6733 16.6085 10.3175L3.03931 5.56825C2.23504 5.28676 1.46972 6.07578 1.77561 6.87109Z"
            stroke="white" />
    </g>
    <g filter="url(#filter1_d_2271_623)">
        <rect x="25" y="0.354492" width="145" height="24" rx="4" fill="#4A4AFF"
            shape-rendering="crispEdges" />
        <rect x="25.5" y="0.854492" width="144" height="23" rx="3.5" stroke="white"
            shape-rendering="crispEdges" />
        <path
            d="M41.0801 12.9893C41.0801 13.9541 40.9004 14.7607 40.541 15.4092C40.1816 16.0537 39.6602 16.54 38.9766 16.8682C38.293 17.1924 37.4688 17.3545 36.5039 17.3545H34.125V8.78809H36.7617C37.6484 8.78809 38.4141 8.94824 39.0586 9.26855C39.7031 9.58496 40.2012 10.0557 40.5527 10.6807C40.9043 11.3018 41.0801 12.0713 41.0801 12.9893ZM39.6152 13.0303C39.6152 12.3271 39.5039 11.749 39.2812 11.2959C39.0625 10.8428 38.7383 10.5068 38.3086 10.2881C37.8828 10.0654 37.3574 9.9541 36.7324 9.9541H35.5312V16.1768H36.5273C37.5625 16.1768 38.3359 15.9131 38.8477 15.3857C39.3594 14.8584 39.6152 14.0732 39.6152 13.0303ZM44.1621 10.8682V17.3545H42.7852V10.8682H44.1621ZM43.4824 8.38379C43.6934 8.38379 43.875 8.44043 44.0273 8.55371C44.1836 8.66699 44.2617 8.8623 44.2617 9.13965C44.2617 9.41309 44.1836 9.6084 44.0273 9.72559C43.875 9.83887 43.6934 9.89551 43.4824 9.89551C43.2637 9.89551 43.0781 9.83887 42.9258 9.72559C42.7773 9.6084 42.7031 9.41309 42.7031 9.13965C42.7031 8.8623 42.7773 8.66699 42.9258 8.55371C43.0781 8.44043 43.2637 8.38379 43.4824 8.38379ZM47.9883 20.2373C47.1094 20.2373 46.4355 20.0791 45.9668 19.7627C45.498 19.4463 45.2637 19.0029 45.2637 18.4326C45.2637 18.0342 45.3887 17.6963 45.6387 17.4189C45.8887 17.1455 46.2461 16.9561 46.7109 16.8506C46.5352 16.7725 46.3828 16.6514 46.2539 16.4873C46.1289 16.3193 46.0664 16.1338 46.0664 15.9307C46.0664 15.6885 46.1348 15.4814 46.2715 15.3096C46.4082 15.1377 46.6133 14.9717 46.8867 14.8115C46.5469 14.667 46.2734 14.4326 46.0664 14.1084C45.8633 13.7803 45.7617 13.3955 45.7617 12.9541C45.7617 12.4854 45.8613 12.0869 46.0605 11.7588C46.2598 11.4268 46.5508 11.1748 46.9336 11.0029C47.3164 10.8271 47.7793 10.7393 48.3223 10.7393C48.4395 10.7393 48.5664 10.7471 48.7031 10.7627C48.8438 10.7744 48.9727 10.79 49.0898 10.8096C49.2109 10.8252 49.3027 10.8428 49.3652 10.8623H51.6094V11.6299L50.5078 11.835C50.6133 11.9834 50.6973 12.1533 50.7598 12.3447C50.8223 12.5322 50.8535 12.7373 50.8535 12.96C50.8535 13.6318 50.6211 14.1611 50.1562 14.5479C49.6953 14.9307 49.0586 15.1221 48.2461 15.1221C48.0508 15.1143 47.8613 15.0986 47.6777 15.0752C47.5371 15.1611 47.4297 15.2568 47.3555 15.3623C47.2812 15.4639 47.2441 15.5791 47.2441 15.708C47.2441 15.8135 47.2812 15.8994 47.3555 15.9658C47.4297 16.0283 47.5391 16.0752 47.6836 16.1064C47.832 16.1377 48.0117 16.1533 48.2227 16.1533H49.3418C50.0527 16.1533 50.5957 16.3037 50.9707 16.6045C51.3457 16.9053 51.5332 17.3467 51.5332 17.9287C51.5332 18.667 51.2285 19.2354 50.6191 19.6338C50.0098 20.0361 49.1328 20.2373 47.9883 20.2373ZM48.041 19.2705C48.5215 19.2705 48.9258 19.2236 49.2539 19.1299C49.582 19.0361 49.8301 18.9014 49.998 18.7256C50.166 18.5537 50.25 18.3486 50.25 18.1104C50.25 17.8994 50.1973 17.7373 50.0918 17.624C49.9863 17.5107 49.8281 17.4326 49.6172 17.3896C49.4062 17.3467 49.1445 17.3252 48.832 17.3252H47.8125C47.5586 17.3252 47.334 17.3643 47.1387 17.4424C46.9434 17.5244 46.791 17.6416 46.6816 17.7939C46.5762 17.9463 46.5234 18.1299 46.5234 18.3447C46.5234 18.6416 46.6543 18.8701 46.916 19.0303C47.1816 19.1904 47.5566 19.2705 48.041 19.2705ZM48.3105 14.2197C48.7129 14.2197 49.0117 14.1104 49.207 13.8916C49.4023 13.6689 49.5 13.3564 49.5 12.9541C49.5 12.5166 49.3984 12.1885 49.1953 11.9697C48.9961 11.751 48.6992 11.6416 48.3047 11.6416C47.918 11.6416 47.623 11.7529 47.4199 11.9756C47.2207 12.1982 47.1211 12.5283 47.1211 12.9658C47.1211 13.3604 47.2207 13.6689 47.4199 13.8916C47.623 14.1104 47.9199 14.2197 48.3105 14.2197ZM54.1699 10.8682V17.3545H52.793V10.8682H54.1699ZM53.4902 8.38379C53.7012 8.38379 53.8828 8.44043 54.0352 8.55371C54.1914 8.66699 54.2695 8.8623 54.2695 9.13965C54.2695 9.41309 54.1914 9.6084 54.0352 9.72559C53.8828 9.83887 53.7012 9.89551 53.4902 9.89551C53.2715 9.89551 53.0859 9.83887 52.9336 9.72559C52.7852 9.6084 52.7109 9.41309 52.7109 9.13965C52.7109 8.8623 52.7852 8.66699 52.9336 8.55371C53.0859 8.44043 53.2715 8.38379 53.4902 8.38379ZM58.5586 16.3584C58.7383 16.3584 58.916 16.3428 59.0918 16.3115C59.2676 16.2764 59.4277 16.2354 59.5723 16.1885V17.2314C59.4199 17.2979 59.2227 17.3545 58.9805 17.4014C58.7383 17.4482 58.4863 17.4717 58.2246 17.4717C57.8574 17.4717 57.5273 17.4111 57.2344 17.29C56.9414 17.165 56.709 16.9521 56.5371 16.6514C56.3652 16.3506 56.2793 15.9346 56.2793 15.4033V11.917H55.3945V11.3018L56.3438 10.8154L56.7949 9.42676H57.6621V10.8682H59.5195V11.917H57.6621V15.3857C57.6621 15.7139 57.7441 15.958 57.9082 16.1182C58.0723 16.2783 58.2891 16.3584 58.5586 16.3584ZM63.4336 10.7451C64.2539 10.7451 64.873 10.9268 65.291 11.29C65.7129 11.6533 65.9238 12.2197 65.9238 12.9893V17.3545H64.9453L64.6816 16.4346H64.6348C64.4512 16.6689 64.2617 16.8623 64.0664 17.0146C63.8711 17.167 63.6445 17.2803 63.3867 17.3545C63.1328 17.4326 62.8223 17.4717 62.4551 17.4717C62.0684 17.4717 61.7227 17.4014 61.418 17.2607C61.1133 17.1162 60.873 16.8975 60.6973 16.6045C60.5215 16.3115 60.4336 15.9404 60.4336 15.4912C60.4336 14.8232 60.6816 14.3213 61.1777 13.9854C61.6777 13.6494 62.4316 13.4639 63.4395 13.4287L64.5645 13.3877V13.0479C64.5645 12.5986 64.459 12.2783 64.248 12.0869C64.041 11.8955 63.748 11.7998 63.3691 11.7998C63.0449 11.7998 62.7305 11.8467 62.4258 11.9404C62.1211 12.0342 61.8242 12.1494 61.5352 12.2861L61.0898 11.3135C61.4062 11.1455 61.7656 11.0088 62.168 10.9033C62.5742 10.7979 62.9961 10.7451 63.4336 10.7451ZM64.5586 14.2549L63.7207 14.2842C63.0332 14.3076 62.5508 14.4248 62.2734 14.6357C61.9961 14.8467 61.8574 15.1357 61.8574 15.5029C61.8574 15.8232 61.9531 16.0576 62.1445 16.2061C62.3359 16.3506 62.5879 16.4229 62.9004 16.4229C63.377 16.4229 63.7715 16.2881 64.084 16.0186C64.4004 15.7451 64.5586 15.3447 64.5586 14.8174V14.2549ZM69.2344 17.3545H67.8516V8.2373H69.2344V17.3545ZM76.9512 8.78809C78.0566 8.78809 78.8633 9.01465 79.3711 9.46777C79.8789 9.9209 80.1328 10.5557 80.1328 11.3721C80.1328 11.7432 80.0742 12.0967 79.957 12.4326C79.8438 12.7646 79.6562 13.0596 79.3945 13.3174C79.1328 13.5713 78.7871 13.7725 78.3574 13.9209C77.9316 14.0693 77.4062 14.1436 76.7812 14.1436H75.8672V17.3545H74.4609V8.78809H76.9512ZM76.8574 9.9541H75.8672V12.9717H76.6348C77.0762 12.9717 77.4512 12.9209 77.7598 12.8193C78.0684 12.7139 78.3027 12.5479 78.4629 12.3213C78.623 12.0947 78.7031 11.7959 78.7031 11.4248C78.7031 10.9287 78.5527 10.5596 78.252 10.3174C77.9551 10.0752 77.4902 9.9541 76.8574 9.9541ZM84.9902 10.7451C85.0996 10.7451 85.2188 10.751 85.3477 10.7627C85.4766 10.7744 85.5879 10.79 85.6816 10.8096L85.5527 12.0986C85.4707 12.0752 85.3691 12.0576 85.248 12.0459C85.1309 12.0342 85.0254 12.0283 84.9316 12.0283C84.6855 12.0283 84.4512 12.0693 84.2285 12.1514C84.0059 12.2295 83.8086 12.3506 83.6367 12.5146C83.4648 12.6748 83.3301 12.876 83.2324 13.1182C83.1348 13.3604 83.0859 13.6416 83.0859 13.9619V17.3545H81.7031V10.8682H82.7812L82.9688 12.0107H83.0332C83.1621 11.7803 83.3223 11.5693 83.5137 11.3779C83.7051 11.1865 83.9238 11.0342 84.1699 10.9209C84.4199 10.8037 84.6934 10.7451 84.9902 10.7451ZM92.625 14.0967C92.625 14.6357 92.5547 15.1143 92.4141 15.5322C92.2734 15.9502 92.0684 16.3037 91.7988 16.5928C91.5293 16.8779 91.2051 17.0967 90.8262 17.249C90.4473 17.3975 90.0195 17.4717 89.543 17.4717C89.0977 17.4717 88.6895 17.3975 88.3184 17.249C87.9473 17.0967 87.625 16.8779 87.3516 16.5928C87.082 16.3037 86.873 15.9502 86.7246 15.5322C86.5762 15.1143 86.502 14.6357 86.502 14.0967C86.502 13.3818 86.625 12.7764 86.8711 12.2803C87.1211 11.7803 87.4766 11.3994 87.9375 11.1377C88.3984 10.876 88.9473 10.7451 89.584 10.7451C90.1816 10.7451 90.709 10.876 91.166 11.1377C91.623 11.3994 91.9805 11.7803 92.2383 12.2803C92.4961 12.7803 92.625 13.3857 92.625 14.0967ZM87.9199 14.0967C87.9199 14.5693 87.9766 14.9736 88.0898 15.3096C88.207 15.6455 88.3867 15.9033 88.6289 16.083C88.8711 16.2588 89.1836 16.3467 89.5664 16.3467C89.9492 16.3467 90.2617 16.2588 90.5039 16.083C90.7461 15.9033 90.9238 15.6455 91.0371 15.3096C91.1504 14.9736 91.207 14.5693 91.207 14.0967C91.207 13.624 91.1504 13.2236 91.0371 12.8955C90.9238 12.5635 90.7461 12.3115 90.5039 12.1396C90.2617 11.9639 89.9473 11.876 89.5605 11.876C88.9902 11.876 88.5742 12.0674 88.3125 12.4502C88.0508 12.833 87.9199 13.3818 87.9199 14.0967ZM95.584 8.2373V10.4346C95.584 10.6885 95.5762 10.9385 95.5605 11.1846C95.5488 11.4268 95.5371 11.6162 95.5254 11.7529H95.584C95.7598 11.4717 96.0039 11.2354 96.3164 11.0439C96.6328 10.8486 97.0371 10.751 97.5293 10.751C98.2988 10.751 98.918 11.0342 99.3867 11.6006C99.8555 12.1631 100.09 12.9971 100.09 14.1025C100.09 14.8369 99.9824 15.4541 99.7676 15.9541C99.5527 16.4541 99.25 16.833 98.8594 17.0908C98.4727 17.3447 98.0176 17.4717 97.4941 17.4717C97.002 17.4717 96.6035 17.3818 96.2988 17.2021C95.998 17.0186 95.7617 16.8057 95.5898 16.5635H95.4902L95.2383 17.3545H94.207V8.2373H95.584ZM97.166 11.8701C96.7754 11.8701 96.4648 11.9482 96.2344 12.1045C96.0078 12.2607 95.8438 12.4951 95.7422 12.8076C95.6406 13.1162 95.5879 13.5088 95.584 13.9854V14.1084C95.584 14.8311 95.6973 15.3838 95.9238 15.7666C96.1543 16.1494 96.5723 16.3408 97.1777 16.3408C97.6582 16.3408 98.0273 16.1475 98.2852 15.7607C98.543 15.3701 98.6719 14.8115 98.6719 14.085C98.6719 13.3506 98.543 12.7979 98.2852 12.4268C98.0312 12.0557 97.6582 11.8701 97.166 11.8701ZM103.066 17.3545H101.684V8.2373H103.066V17.3545ZM107.619 10.7451C108.197 10.7451 108.693 10.8643 109.107 11.1025C109.521 11.3408 109.84 11.6787 110.062 12.1162C110.285 12.5537 110.396 13.0771 110.396 13.6865V14.4248H106.066C106.082 15.0537 106.25 15.5381 106.57 15.8779C106.895 16.2178 107.348 16.3877 107.93 16.3877C108.344 16.3877 108.715 16.3486 109.043 16.2705C109.375 16.1885 109.717 16.0693 110.068 15.9131V17.0322C109.744 17.1846 109.414 17.2959 109.078 17.3662C108.742 17.4365 108.34 17.4717 107.871 17.4717C107.234 17.4717 106.674 17.3486 106.189 17.1025C105.709 16.8525 105.332 16.4814 105.059 15.9893C104.789 15.4971 104.654 14.8857 104.654 14.1553C104.654 13.4287 104.777 12.8115 105.023 12.3037C105.27 11.7959 105.615 11.4092 106.061 11.1436C106.506 10.8779 107.025 10.7451 107.619 10.7451ZM107.619 11.7822C107.186 11.7822 106.834 11.9229 106.564 12.2041C106.299 12.4854 106.143 12.8975 106.096 13.4404H109.049C109.045 13.1162 108.99 12.8291 108.885 12.5791C108.783 12.3291 108.627 12.1338 108.416 11.9932C108.209 11.8525 107.943 11.7822 107.619 11.7822ZM119.279 10.7451C120.006 10.7451 120.553 10.9326 120.92 11.3076C121.291 11.6826 121.477 12.2842 121.477 13.1123V17.3545H120.1V13.3584C120.1 12.8662 120.004 12.4951 119.812 12.2451C119.621 11.9951 119.33 11.8701 118.939 11.8701C118.393 11.8701 117.998 12.0459 117.756 12.3975C117.518 12.7451 117.398 13.251 117.398 13.915V17.3545H116.021V13.3584C116.021 13.0303 115.979 12.7568 115.893 12.5381C115.811 12.3154 115.684 12.1494 115.512 12.04C115.34 11.9268 115.123 11.8701 114.861 11.8701C114.482 11.8701 114.18 11.9561 113.953 12.1279C113.73 12.2998 113.57 12.5537 113.473 12.8896C113.375 13.2217 113.326 13.6299 113.326 14.1143V17.3545H111.949V10.8682H113.021L113.215 11.7412H113.291C113.424 11.5146 113.588 11.3291 113.783 11.1846C113.982 11.0361 114.203 10.9268 114.445 10.8564C114.688 10.7822 114.939 10.7451 115.201 10.7451C115.686 10.7451 116.094 10.8311 116.426 11.0029C116.758 11.1709 117.006 11.4287 117.17 11.7764H117.275C117.479 11.4248 117.762 11.165 118.125 10.9971C118.488 10.8291 118.873 10.7451 119.279 10.7451ZM131.602 15.0225C131.602 15.5303 131.477 15.9678 131.227 16.335C130.98 16.7021 130.625 16.9834 130.16 17.1787C129.699 17.374 129.148 17.4717 128.508 17.4717C128.195 17.4717 127.896 17.4541 127.611 17.4189C127.326 17.3838 127.057 17.333 126.803 17.2666C126.553 17.1963 126.324 17.1123 126.117 17.0146V15.6904C126.465 15.8428 126.854 15.9814 127.283 16.1064C127.713 16.2275 128.15 16.2881 128.596 16.2881C128.959 16.2881 129.26 16.2412 129.498 16.1475C129.74 16.0498 129.92 15.9131 130.037 15.7373C130.154 15.5576 130.213 15.3486 130.213 15.1104C130.213 14.8564 130.145 14.6416 130.008 14.4658C129.871 14.29 129.664 14.1299 129.387 13.9854C129.113 13.8369 128.77 13.6787 128.355 13.5107C128.074 13.3975 127.805 13.2686 127.547 13.124C127.293 12.9795 127.066 12.8096 126.867 12.6143C126.668 12.4189 126.51 12.1885 126.393 11.9229C126.279 11.6533 126.223 11.3369 126.223 10.9736C126.223 10.4893 126.338 10.0752 126.568 9.73145C126.803 9.3877 127.131 9.12402 127.553 8.94043C127.979 8.75684 128.475 8.66504 129.041 8.66504C129.49 8.66504 129.912 8.71191 130.307 8.80566C130.705 8.89941 131.096 9.03223 131.479 9.2041L131.033 10.335C130.682 10.1904 130.34 10.0752 130.008 9.98926C129.68 9.90332 129.344 9.86035 129 9.86035C128.703 9.86035 128.451 9.90527 128.244 9.99512C128.037 10.085 127.879 10.2119 127.77 10.376C127.664 10.5361 127.611 10.7275 127.611 10.9502C127.611 11.2002 127.672 11.4111 127.793 11.583C127.918 11.751 128.109 11.9053 128.367 12.0459C128.629 12.1865 128.965 12.3428 129.375 12.5146C129.848 12.71 130.248 12.915 130.576 13.1299C130.908 13.3447 131.162 13.6025 131.338 13.9033C131.514 14.2002 131.602 14.5732 131.602 15.0225ZM138.855 14.0967C138.855 14.6357 138.785 15.1143 138.645 15.5322C138.504 15.9502 138.299 16.3037 138.029 16.5928C137.76 16.8779 137.436 17.0967 137.057 17.249C136.678 17.3975 136.25 17.4717 135.773 17.4717C135.328 17.4717 134.92 17.3975 134.549 17.249C134.178 17.0967 133.855 16.8779 133.582 16.5928C133.312 16.3037 133.104 15.9502 132.955 15.5322C132.807 15.1143 132.732 14.6357 132.732 14.0967C132.732 13.3818 132.855 12.7764 133.102 12.2803C133.352 11.7803 133.707 11.3994 134.168 11.1377C134.629 10.876 135.178 10.7451 135.814 10.7451C136.412 10.7451 136.939 10.876 137.396 11.1377C137.854 11.3994 138.211 11.7803 138.469 12.2803C138.727 12.7803 138.855 13.3857 138.855 14.0967ZM134.15 14.0967C134.15 14.5693 134.207 14.9736 134.32 15.3096C134.438 15.6455 134.617 15.9033 134.859 16.083C135.102 16.2588 135.414 16.3467 135.797 16.3467C136.18 16.3467 136.492 16.2588 136.734 16.083C136.977 15.9033 137.154 15.6455 137.268 15.3096C137.381 14.9736 137.438 14.5693 137.438 14.0967C137.438 13.624 137.381 13.2236 137.268 12.8955C137.154 12.5635 136.977 12.3115 136.734 12.1396C136.492 11.9639 136.178 11.876 135.791 11.876C135.221 11.876 134.805 12.0674 134.543 12.4502C134.281 12.833 134.15 13.3818 134.15 14.0967ZM141.82 17.3545H140.438V8.2373H141.82V17.3545ZM145.271 17.3545L142.805 10.8682H144.264L145.6 14.6768C145.686 14.9189 145.764 15.1807 145.834 15.4619C145.904 15.7432 145.953 15.9795 145.98 16.1709H146.027C146.055 15.9717 146.107 15.7334 146.186 15.4561C146.264 15.1748 146.344 14.915 146.426 14.6768L147.762 10.8682H149.215L146.748 17.3545H145.271ZM152.783 10.7451C153.361 10.7451 153.857 10.8643 154.271 11.1025C154.686 11.3408 155.004 11.6787 155.227 12.1162C155.449 12.5537 155.561 13.0771 155.561 13.6865V14.4248H151.23C151.246 15.0537 151.414 15.5381 151.734 15.8779C152.059 16.2178 152.512 16.3877 153.094 16.3877C153.508 16.3877 153.879 16.3486 154.207 16.2705C154.539 16.1885 154.881 16.0693 155.232 15.9131V17.0322C154.908 17.1846 154.578 17.2959 154.242 17.3662C153.906 17.4365 153.504 17.4717 153.035 17.4717C152.398 17.4717 151.838 17.3486 151.354 17.1025C150.873 16.8525 150.496 16.4814 150.223 15.9893C149.953 15.4971 149.818 14.8857 149.818 14.1553C149.818 13.4287 149.941 12.8115 150.188 12.3037C150.434 11.7959 150.779 11.4092 151.225 11.1436C151.67 10.8779 152.189 10.7451 152.783 10.7451ZM152.783 11.7822C152.35 11.7822 151.998 11.9229 151.729 12.2041C151.463 12.4854 151.307 12.8975 151.26 13.4404H154.213C154.209 13.1162 154.154 12.8291 154.049 12.5791C153.947 12.3291 153.791 12.1338 153.58 11.9932C153.373 11.8525 153.107 11.7822 152.783 11.7822ZM160.4 10.7451C160.51 10.7451 160.629 10.751 160.758 10.7627C160.887 10.7744 160.998 10.79 161.092 10.8096L160.963 12.0986C160.881 12.0752 160.779 12.0576 160.658 12.0459C160.541 12.0342 160.436 12.0283 160.342 12.0283C160.096 12.0283 159.861 12.0693 159.639 12.1514C159.416 12.2295 159.219 12.3506 159.047 12.5146C158.875 12.6748 158.74 12.876 158.643 13.1182C158.545 13.3604 158.496 13.6416 158.496 13.9619V17.3545H157.113V10.8682H158.191L158.379 12.0107H158.443C158.572 11.7803 158.732 11.5693 158.924 11.3779C159.115 11.1865 159.334 11.0342 159.58 10.9209C159.83 10.8037 160.104 10.7451 160.4 10.7451Z"
            fill="white" />
    </g>
    <defs>
        <filter id="filter0_d_2271_623" x="0.205566" y="4.50879" width="18.5732" height="18.4458"
            filterUnits="userSpaceOnUse" color-interpolation-filters="sRGB">
            <feFlood flood-opacity="0" result="BackgroundImageFix" />
            <feColorMatrix in="SourceAlpha" type="matrix"
                values="0 0 0 0 0 0 0 0 0 0 0 0 0 0 0 0 0 0 127 0" result="hardAlpha" />
            <feOffset dy="0.5" />
            <feGaussianBlur stdDeviation="0.5" />
            <feComposite in2="hardAlpha" operator="out" />
            <feColorMatrix type="matrix" values="0 0 0 0 0 0 0 0 0 0 0 0 0 0 0 0 0 0 0.25 0" />
            <feBlend mode="normal" in2="BackgroundImageFix" result="effect1_dropShadow_2271_623" />
            <feBlend mode="normal" in="SourceGraphic" in2="effect1_dropShadow_2271_623"
                result="shape" />
        </filter>
        <filter id="filter1_d_2271_623" x="23" y="0.354492" width="149" height="28"
            filterUnits="userSpaceOnUse" color-interpolation-filters="sRGB">
            <feFlood flood-opacity="0" result="BackgroundImageFix" />
            <feColorMatrix in="SourceAlpha" type="matrix"
                values="0 0 0 0 0 0 0 0 0 0 0 0 0 0 0 0 0 0 127 0" result="hardAlpha" />
            <feOffset dy="2" />
            <feGaussianBlur stdDeviation="1" />
            <feComposite in2="hardAlpha" operator="out" />
            <feColorMatrix type="matrix" values="0 0 0 0 0 0 0 0 0 0 0 0 0 0 0 0 0 0 0.2 0" />
            <feBlend mode="normal" in2="BackgroundImageFix" result="effect1_dropShadow_2271_623" />
            <feBlend mode="normal" in="SourceGraphic" in2="effect1_dropShadow_2271_623"
                result="shape" />
        </filter>
    </defs>
</svg>
    