<svg width="280" height="29" viewBox="0 0 280 29" fill="none" xmlns="http://www.w3.org/2000/svg">
    <g filter="url(#filter0_d_2271_615)">
        <path
            d="M1.77561 6.87109L6.94554 20.3129C7.32624 21.3027 8.78325 21.0971 8.87513 20.0405L9.42723 13.6913C9.46931 13.2075 9.85298 12.8238 10.3368 12.7817L16.3648 12.2576C17.4379 12.1642 17.6252 10.6733 16.6085 10.3175L3.03931 5.56825C2.23504 5.28676 1.46972 6.07578 1.77561 6.87109Z"
            fill="#FF904A" />
        <path
            d="M1.77561 6.87109L6.94554 20.3129C7.32624 21.3027 8.78325 21.0971 8.87513 20.0405L9.42723 13.6913C9.46931 13.2075 9.85298 12.8238 10.3368 12.7817L16.3648 12.2576C17.4379 12.1642 17.6252 10.6733 16.6085 10.3175L3.03931 5.56825C2.23504 5.28676 1.46972 6.07578 1.77561 6.87109Z"
            stroke="white" />
    </g>
    <g filter="url(#filter1_d_2271_615)">
        <rect x="25" y="0.354492" width="253" height="24" rx="4" fill="#FF904A"
            shape-rendering="crispEdges" />
        <rect x="25.5" y="0.854492" width="252" height="23" rx="3.5" stroke="white"
            shape-rendering="crispEdges" />
        <path
            d="M41.0801 12.9893C41.0801 13.9541 40.9004 14.7607 40.541 15.4092C40.1816 16.0537 39.6602 16.54 38.9766 16.8682C38.293 17.1924 37.4688 17.3545 36.5039 17.3545H34.125V8.78809H36.7617C37.6484 8.78809 38.4141 8.94824 39.0586 9.26855C39.7031 9.58496 40.2012 10.0557 40.5527 10.6807C40.9043 11.3018 41.0801 12.0713 41.0801 12.9893ZM39.6152 13.0303C39.6152 12.3271 39.5039 11.749 39.2812 11.2959C39.0625 10.8428 38.7383 10.5068 38.3086 10.2881C37.8828 10.0654 37.3574 9.9541 36.7324 9.9541H35.5312V16.1768H36.5273C37.5625 16.1768 38.3359 15.9131 38.8477 15.3857C39.3594 14.8584 39.6152 14.0732 39.6152 13.0303ZM46.0723 10.7451C46.1816 10.7451 46.3008 10.751 46.4297 10.7627C46.5586 10.7744 46.6699 10.79 46.7637 10.8096L46.6348 12.0986C46.5527 12.0752 46.4512 12.0576 46.3301 12.0459C46.2129 12.0342 46.1074 12.0283 46.0137 12.0283C45.7676 12.0283 45.5332 12.0693 45.3105 12.1514C45.0879 12.2295 44.8906 12.3506 44.7188 12.5146C44.5469 12.6748 44.4121 12.876 44.3145 13.1182C44.2168 13.3604 44.168 13.6416 44.168 13.9619V17.3545H42.7852V10.8682H43.8633L44.0508 12.0107H44.1152C44.2441 11.7803 44.4043 11.5693 44.5957 11.3779C44.7871 11.1865 45.0059 11.0342 45.252 10.9209C45.502 10.8037 45.7754 10.7451 46.0723 10.7451ZM49.3418 10.8682V17.3545H47.9648V10.8682H49.3418ZM48.6621 8.38379C48.873 8.38379 49.0547 8.44043 49.207 8.55371C49.3633 8.66699 49.4414 8.8623 49.4414 9.13965C49.4414 9.41309 49.3633 9.6084 49.207 9.72559C49.0547 9.83887 48.873 9.89551 48.6621 9.89551C48.4434 9.89551 48.2578 9.83887 48.1055 9.72559C47.957 9.6084 47.8828 9.41309 47.8828 9.13965C47.8828 8.8623 47.957 8.66699 48.1055 8.55371C48.2578 8.44043 48.4434 8.38379 48.6621 8.38379ZM52.7988 17.3545L50.332 10.8682H51.791L53.127 14.6768C53.2129 14.9189 53.291 15.1807 53.3613 15.4619C53.4316 15.7432 53.4805 15.9795 53.5078 16.1709H53.5547C53.582 15.9717 53.6348 15.7334 53.7129 15.4561C53.791 15.1748 53.8711 14.915 53.9531 14.6768L55.2891 10.8682H56.7422L54.2754 17.3545H52.7988ZM60.3105 10.7451C60.8887 10.7451 61.3848 10.8643 61.7988 11.1025C62.2129 11.3408 62.5312 11.6787 62.7539 12.1162C62.9766 12.5537 63.0879 13.0771 63.0879 13.6865V14.4248H58.7578C58.7734 15.0537 58.9414 15.5381 59.2617 15.8779C59.5859 16.2178 60.0391 16.3877 60.6211 16.3877C61.0352 16.3877 61.4062 16.3486 61.7344 16.2705C62.0664 16.1885 62.4082 16.0693 62.7598 15.9131V17.0322C62.4355 17.1846 62.1055 17.2959 61.7695 17.3662C61.4336 17.4365 61.0312 17.4717 60.5625 17.4717C59.9258 17.4717 59.3652 17.3486 58.8809 17.1025C58.4004 16.8525 58.0234 16.4814 57.75 15.9893C57.4805 15.4971 57.3457 14.8857 57.3457 14.1553C57.3457 13.4287 57.4688 12.8115 57.7148 12.3037C57.9609 11.7959 58.3066 11.4092 58.752 11.1436C59.1973 10.8779 59.7168 10.7451 60.3105 10.7451ZM60.3105 11.7822C59.877 11.7822 59.5254 11.9229 59.2559 12.2041C58.9902 12.4854 58.834 12.8975 58.7871 13.4404H61.7402C61.7363 13.1162 61.6816 12.8291 61.5762 12.5791C61.4746 12.3291 61.3184 12.1338 61.1074 11.9932C60.9004 11.8525 60.6348 11.7822 60.3105 11.7822ZM68.0215 10.7451C68.752 10.7451 69.3203 10.9346 69.7266 11.3135C70.1367 11.6885 70.3418 12.292 70.3418 13.124V17.3545H68.9648V13.3818C68.9648 12.8779 68.8613 12.501 68.6543 12.251C68.4473 11.9971 68.127 11.8701 67.6934 11.8701C67.0645 11.8701 66.627 12.0635 66.3809 12.4502C66.1387 12.8369 66.0176 13.3975 66.0176 14.1318V17.3545H64.6406V10.8682H65.7129L65.9062 11.7471H65.9824C66.123 11.5205 66.2969 11.335 66.5039 11.1904C66.7148 11.042 66.9492 10.9307 67.207 10.8564C67.4688 10.7822 67.7402 10.7451 68.0215 10.7451ZM76.7637 8.2373V10.4346C76.7637 10.6885 76.7559 10.9385 76.7402 11.1846C76.7285 11.4268 76.7168 11.6162 76.7051 11.7529H76.7637C76.9395 11.4717 77.1836 11.2354 77.4961 11.0439C77.8125 10.8486 78.2168 10.751 78.709 10.751C79.4785 10.751 80.0977 11.0342 80.5664 11.6006C81.0352 12.1631 81.2695 12.9971 81.2695 14.1025C81.2695 14.8369 81.1621 15.4541 80.9473 15.9541C80.7324 16.4541 80.4297 16.833 80.0391 17.0908C79.6523 17.3447 79.1973 17.4717 78.6738 17.4717C78.1816 17.4717 77.7832 17.3818 77.4785 17.2021C77.1777 17.0186 76.9414 16.8057 76.7695 16.5635H76.6699L76.418 17.3545H75.3867V8.2373H76.7637ZM78.3457 11.8701C77.9551 11.8701 77.6445 11.9482 77.4141 12.1045C77.1875 12.2607 77.0234 12.4951 76.9219 12.8076C76.8203 13.1162 76.7676 13.5088 76.7637 13.9854V14.1084C76.7637 14.8311 76.877 15.3838 77.1035 15.7666C77.334 16.1494 77.752 16.3408 78.3574 16.3408C78.8379 16.3408 79.207 16.1475 79.4648 15.7607C79.7227 15.3701 79.8516 14.8115 79.8516 14.085C79.8516 13.3506 79.7227 12.7979 79.4648 12.4268C79.2109 12.0557 78.8379 11.8701 78.3457 11.8701ZM81.8848 10.8682H83.3848L84.7148 14.5713C84.7734 14.7393 84.8262 14.9053 84.873 15.0693C84.9238 15.2295 84.9668 15.3877 85.002 15.5439C85.041 15.7002 85.0723 15.8564 85.0957 16.0127H85.1309C85.1699 15.8096 85.2246 15.583 85.2949 15.333C85.3691 15.0791 85.4512 14.8252 85.541 14.5713L86.8184 10.8682H88.3008L85.5176 18.2451C85.3574 18.667 85.1602 19.0264 84.9258 19.3232C84.6953 19.624 84.4219 19.8506 84.1055 20.0029C83.7891 20.1592 83.4277 20.2373 83.0215 20.2373C82.8262 20.2373 82.6562 20.2256 82.5117 20.2021C82.3672 20.1826 82.2441 20.1611 82.1426 20.1377V19.0361C82.2246 19.0557 82.3281 19.0732 82.4531 19.0889C82.5781 19.1045 82.707 19.1123 82.8398 19.1123C83.0859 19.1123 83.2988 19.0635 83.4785 18.9658C83.6582 18.8682 83.8105 18.7295 83.9355 18.5498C84.0605 18.374 84.1641 18.1729 84.2461 17.9463L84.4746 17.3369L81.8848 10.8682ZM96.1934 9.86035C95.7832 9.86035 95.416 9.93457 95.0918 10.083C94.7715 10.2314 94.5 10.4463 94.2773 10.7275C94.0547 11.0049 93.8848 11.3428 93.7676 11.7412C93.6504 12.1357 93.5918 12.5811 93.5918 13.0771C93.5918 13.7412 93.6855 14.3135 93.873 14.7939C94.0605 15.2705 94.3457 15.6377 94.7285 15.8955C95.1113 16.1494 95.5957 16.2764 96.1816 16.2764C96.5449 16.2764 96.8984 16.2412 97.2422 16.1709C97.5859 16.1006 97.9414 16.0049 98.3086 15.8838V17.0791C97.9609 17.2158 97.6094 17.3154 97.2539 17.3779C96.8984 17.4404 96.4883 17.4717 96.0234 17.4717C95.1484 17.4717 94.4219 17.29 93.8438 16.9268C93.2695 16.5635 92.8398 16.0518 92.5547 15.3916C92.2734 14.7314 92.1328 13.958 92.1328 13.0713C92.1328 12.4229 92.2227 11.8291 92.4023 11.29C92.582 10.751 92.8438 10.2861 93.1875 9.89551C93.5312 9.50098 93.9551 9.19824 94.459 8.9873C94.9668 8.77246 95.5469 8.66504 96.1992 8.66504C96.6289 8.66504 97.0508 8.71387 97.4648 8.81152C97.8828 8.90527 98.2695 9.04004 98.625 9.21582L98.1328 10.376C97.8359 10.2354 97.5254 10.1143 97.2012 10.0127C96.877 9.91113 96.541 9.86035 96.1934 9.86035ZM101.391 17.3545H100.008V8.2373H101.391V17.3545ZM105.902 10.7451C106.723 10.7451 107.342 10.9268 107.76 11.29C108.182 11.6533 108.393 12.2197 108.393 12.9893V17.3545H107.414L107.15 16.4346H107.104C106.92 16.6689 106.73 16.8623 106.535 17.0146C106.34 17.167 106.113 17.2803 105.855 17.3545C105.602 17.4326 105.291 17.4717 104.924 17.4717C104.537 17.4717 104.191 17.4014 103.887 17.2607C103.582 17.1162 103.342 16.8975 103.166 16.6045C102.99 16.3115 102.902 15.9404 102.902 15.4912C102.902 14.8232 103.15 14.3213 103.646 13.9854C104.146 13.6494 104.9 13.4639 105.908 13.4287L107.033 13.3877V13.0479C107.033 12.5986 106.928 12.2783 106.717 12.0869C106.51 11.8955 106.217 11.7998 105.838 11.7998C105.514 11.7998 105.199 11.8467 104.895 11.9404C104.59 12.0342 104.293 12.1494 104.004 12.2861L103.559 11.3135C103.875 11.1455 104.234 11.0088 104.637 10.9033C105.043 10.7979 105.465 10.7451 105.902 10.7451ZM107.027 14.2549L106.189 14.2842C105.502 14.3076 105.02 14.4248 104.742 14.6357C104.465 14.8467 104.326 15.1357 104.326 15.5029C104.326 15.8232 104.422 16.0576 104.613 16.2061C104.805 16.3506 105.057 16.4229 105.369 16.4229C105.846 16.4229 106.24 16.2881 106.553 16.0186C106.869 15.7451 107.027 15.3447 107.027 14.8174V14.2549ZM113.607 10.7451C113.717 10.7451 113.836 10.751 113.965 10.7627C114.094 10.7744 114.205 10.79 114.299 10.8096L114.17 12.0986C114.088 12.0752 113.986 12.0576 113.865 12.0459C113.748 12.0342 113.643 12.0283 113.549 12.0283C113.303 12.0283 113.068 12.0693 112.846 12.1514C112.623 12.2295 112.426 12.3506 112.254 12.5146C112.082 12.6748 111.947 12.876 111.85 13.1182C111.752 13.3604 111.703 13.6416 111.703 13.9619V17.3545H110.32V10.8682H111.398L111.586 12.0107H111.65C111.779 11.7803 111.939 11.5693 112.131 11.3779C112.322 11.1865 112.541 11.0342 112.787 10.9209C113.037 10.8037 113.311 10.7451 113.607 10.7451ZM116.877 10.8682V17.3545H115.5V10.8682H116.877ZM116.197 8.38379C116.408 8.38379 116.59 8.44043 116.742 8.55371C116.898 8.66699 116.977 8.8623 116.977 9.13965C116.977 9.41309 116.898 9.6084 116.742 9.72559C116.59 9.83887 116.408 9.89551 116.197 9.89551C115.979 9.89551 115.793 9.83887 115.641 9.72559C115.492 9.6084 115.418 9.41309 115.418 9.13965C115.418 8.8623 115.492 8.66699 115.641 8.55371C115.793 8.44043 115.979 8.38379 116.197 8.38379ZM121.266 16.3584C121.445 16.3584 121.623 16.3428 121.799 16.3115C121.975 16.2764 122.135 16.2354 122.279 16.1885V17.2314C122.127 17.2979 121.93 17.3545 121.688 17.4014C121.445 17.4482 121.193 17.4717 120.932 17.4717C120.564 17.4717 120.234 17.4111 119.941 17.29C119.648 17.165 119.416 16.9521 119.244 16.6514C119.072 16.3506 118.986 15.9346 118.986 15.4033V11.917H118.102V11.3018L119.051 10.8154L119.502 9.42676H120.369V10.8682H122.227V11.917H120.369V15.3857C120.369 15.7139 120.451 15.958 120.615 16.1182C120.779 16.2783 120.996 16.3584 121.266 16.3584ZM122.619 10.8682H124.119L125.449 14.5713C125.508 14.7393 125.561 14.9053 125.607 15.0693C125.658 15.2295 125.701 15.3877 125.736 15.5439C125.775 15.7002 125.807 15.8564 125.83 16.0127H125.865C125.904 15.8096 125.959 15.583 126.029 15.333C126.104 15.0791 126.186 14.8252 126.275 14.5713L127.553 10.8682H129.035L126.252 18.2451C126.092 18.667 125.895 19.0264 125.66 19.3232C125.43 19.624 125.156 19.8506 124.84 20.0029C124.523 20.1592 124.162 20.2373 123.756 20.2373C123.561 20.2373 123.391 20.2256 123.246 20.2021C123.102 20.1826 122.979 20.1611 122.877 20.1377V19.0361C122.959 19.0557 123.062 19.0732 123.188 19.0889C123.312 19.1045 123.441 19.1123 123.574 19.1123C123.82 19.1123 124.033 19.0635 124.213 18.9658C124.393 18.8682 124.545 18.7295 124.67 18.5498C124.795 18.374 124.898 18.1729 124.98 17.9463L125.209 17.3369L122.619 10.8682ZM131.408 15.96L131.49 16.0947C131.42 16.376 131.33 16.6787 131.221 17.0029C131.111 17.3271 130.992 17.6514 130.863 17.9756C130.734 18.3037 130.604 18.6123 130.471 18.9014H129.463C129.545 18.585 129.623 18.2529 129.697 17.9053C129.775 17.5615 129.846 17.2217 129.908 16.8857C129.975 16.5459 130.027 16.2373 130.066 15.96H131.408ZM140.197 9.86035C139.787 9.86035 139.42 9.93457 139.096 10.083C138.775 10.2314 138.504 10.4463 138.281 10.7275C138.059 11.0049 137.889 11.3428 137.771 11.7412C137.654 12.1357 137.596 12.5811 137.596 13.0771C137.596 13.7412 137.689 14.3135 137.877 14.7939C138.064 15.2705 138.35 15.6377 138.732 15.8955C139.115 16.1494 139.6 16.2764 140.186 16.2764C140.549 16.2764 140.902 16.2412 141.246 16.1709C141.59 16.1006 141.945 16.0049 142.312 15.8838V17.0791C141.965 17.2158 141.613 17.3154 141.258 17.3779C140.902 17.4404 140.492 17.4717 140.027 17.4717C139.152 17.4717 138.426 17.29 137.848 16.9268C137.273 16.5635 136.844 16.0518 136.559 15.3916C136.277 14.7314 136.137 13.958 136.137 13.0713C136.137 12.4229 136.227 11.8291 136.406 11.29C136.586 10.751 136.848 10.2861 137.191 9.89551C137.535 9.50098 137.959 9.19824 138.463 8.9873C138.971 8.77246 139.551 8.66504 140.203 8.66504C140.633 8.66504 141.055 8.71387 141.469 8.81152C141.887 8.90527 142.273 9.04004 142.629 9.21582L142.137 10.376C141.84 10.2354 141.529 10.1143 141.205 10.0127C140.881 9.91113 140.545 9.86035 140.197 9.86035ZM149.754 14.0967C149.754 14.6357 149.684 15.1143 149.543 15.5322C149.402 15.9502 149.197 16.3037 148.928 16.5928C148.658 16.8779 148.334 17.0967 147.955 17.249C147.576 17.3975 147.148 17.4717 146.672 17.4717C146.227 17.4717 145.818 17.3975 145.447 17.249C145.076 17.0967 144.754 16.8779 144.48 16.5928C144.211 16.3037 144.002 15.9502 143.854 15.5322C143.705 15.1143 143.631 14.6357 143.631 14.0967C143.631 13.3818 143.754 12.7764 144 12.2803C144.25 11.7803 144.605 11.3994 145.066 11.1377C145.527 10.876 146.076 10.7451 146.713 10.7451C147.311 10.7451 147.838 10.876 148.295 11.1377C148.752 11.3994 149.109 11.7803 149.367 12.2803C149.625 12.7803 149.754 13.3857 149.754 14.0967ZM145.049 14.0967C145.049 14.5693 145.105 14.9736 145.219 15.3096C145.336 15.6455 145.516 15.9033 145.758 16.083C146 16.2588 146.312 16.3467 146.695 16.3467C147.078 16.3467 147.391 16.2588 147.633 16.083C147.875 15.9033 148.053 15.6455 148.166 15.3096C148.279 14.9736 148.336 14.5693 148.336 14.0967C148.336 13.624 148.279 13.2236 148.166 12.8955C148.053 12.5635 147.875 12.3115 147.633 12.1396C147.391 11.9639 147.076 11.876 146.689 11.876C146.119 11.876 145.703 12.0674 145.441 12.4502C145.18 12.833 145.049 13.3818 145.049 14.0967ZM152.719 17.3545H151.336V8.2373H152.719V17.3545ZM156.07 17.3545H154.688V8.2373H156.07V17.3545ZM160.582 10.7451C161.402 10.7451 162.021 10.9268 162.439 11.29C162.861 11.6533 163.072 12.2197 163.072 12.9893V17.3545H162.094L161.83 16.4346H161.783C161.6 16.6689 161.41 16.8623 161.215 17.0146C161.02 17.167 160.793 17.2803 160.535 17.3545C160.281 17.4326 159.971 17.4717 159.604 17.4717C159.217 17.4717 158.871 17.4014 158.566 17.2607C158.262 17.1162 158.021 16.8975 157.846 16.6045C157.67 16.3115 157.582 15.9404 157.582 15.4912C157.582 14.8232 157.83 14.3213 158.326 13.9854C158.826 13.6494 159.58 13.4639 160.588 13.4287L161.713 13.3877V13.0479C161.713 12.5986 161.607 12.2783 161.396 12.0869C161.189 11.8955 160.896 11.7998 160.518 11.7998C160.193 11.7998 159.879 11.8467 159.574 11.9404C159.27 12.0342 158.973 12.1494 158.684 12.2861L158.238 11.3135C158.555 11.1455 158.914 11.0088 159.316 10.9033C159.723 10.7979 160.145 10.7451 160.582 10.7451ZM161.707 14.2549L160.869 14.2842C160.182 14.3076 159.699 14.4248 159.422 14.6357C159.145 14.8467 159.006 15.1357 159.006 15.5029C159.006 15.8232 159.102 16.0576 159.293 16.2061C159.484 16.3506 159.736 16.4229 160.049 16.4229C160.525 16.4229 160.92 16.2881 161.232 16.0186C161.549 15.7451 161.707 15.3447 161.707 14.8174V14.2549ZM166.377 8.2373V10.4346C166.377 10.6885 166.369 10.9385 166.354 11.1846C166.342 11.4268 166.33 11.6162 166.318 11.7529H166.377C166.553 11.4717 166.797 11.2354 167.109 11.0439C167.426 10.8486 167.83 10.751 168.322 10.751C169.092 10.751 169.711 11.0342 170.18 11.6006C170.648 12.1631 170.883 12.9971 170.883 14.1025C170.883 14.8369 170.775 15.4541 170.561 15.9541C170.346 16.4541 170.043 16.833 169.652 17.0908C169.266 17.3447 168.811 17.4717 168.287 17.4717C167.795 17.4717 167.396 17.3818 167.092 17.2021C166.791 17.0186 166.555 16.8057 166.383 16.5635H166.283L166.031 17.3545H165V8.2373H166.377ZM167.959 11.8701C167.568 11.8701 167.258 11.9482 167.027 12.1045C166.801 12.2607 166.637 12.4951 166.535 12.8076C166.434 13.1162 166.381 13.5088 166.377 13.9854V14.1084C166.377 14.8311 166.49 15.3838 166.717 15.7666C166.947 16.1494 167.365 16.3408 167.971 16.3408C168.451 16.3408 168.82 16.1475 169.078 15.7607C169.336 15.3701 169.465 14.8115 169.465 14.085C169.465 13.3506 169.336 12.7979 169.078 12.4268C168.824 12.0557 168.451 11.8701 167.959 11.8701ZM178.219 14.0967C178.219 14.6357 178.148 15.1143 178.008 15.5322C177.867 15.9502 177.662 16.3037 177.393 16.5928C177.123 16.8779 176.799 17.0967 176.42 17.249C176.041 17.3975 175.613 17.4717 175.137 17.4717C174.691 17.4717 174.283 17.3975 173.912 17.249C173.541 17.0967 173.219 16.8779 172.945 16.5928C172.676 16.3037 172.467 15.9502 172.318 15.5322C172.17 15.1143 172.096 14.6357 172.096 14.0967C172.096 13.3818 172.219 12.7764 172.465 12.2803C172.715 11.7803 173.07 11.3994 173.531 11.1377C173.992 10.876 174.541 10.7451 175.178 10.7451C175.775 10.7451 176.303 10.876 176.76 11.1377C177.217 11.3994 177.574 11.7803 177.832 12.2803C178.09 12.7803 178.219 13.3857 178.219 14.0967ZM173.514 14.0967C173.514 14.5693 173.57 14.9736 173.684 15.3096C173.801 15.6455 173.98 15.9033 174.223 16.083C174.465 16.2588 174.777 16.3467 175.16 16.3467C175.543 16.3467 175.855 16.2588 176.098 16.083C176.34 15.9033 176.518 15.6455 176.631 15.3096C176.744 14.9736 176.801 14.5693 176.801 14.0967C176.801 13.624 176.744 13.2236 176.631 12.8955C176.518 12.5635 176.34 12.3115 176.098 12.1396C175.855 11.9639 175.541 11.876 175.154 11.876C174.584 11.876 174.168 12.0674 173.906 12.4502C173.645 12.833 173.514 13.3818 173.514 14.0967ZM183.088 10.7451C183.197 10.7451 183.316 10.751 183.445 10.7627C183.574 10.7744 183.686 10.79 183.779 10.8096L183.65 12.0986C183.568 12.0752 183.467 12.0576 183.346 12.0459C183.229 12.0342 183.123 12.0283 183.029 12.0283C182.783 12.0283 182.549 12.0693 182.326 12.1514C182.104 12.2295 181.906 12.3506 181.734 12.5146C181.562 12.6748 181.428 12.876 181.33 13.1182C181.232 13.3604 181.184 13.6416 181.184 13.9619V17.3545H179.801V10.8682H180.879L181.066 12.0107H181.131C181.26 11.7803 181.42 11.5693 181.611 11.3779C181.803 11.1865 182.021 11.0342 182.268 10.9209C182.518 10.8037 182.791 10.7451 183.088 10.7451ZM187.523 10.7451C188.344 10.7451 188.963 10.9268 189.381 11.29C189.803 11.6533 190.014 12.2197 190.014 12.9893V17.3545H189.035L188.771 16.4346H188.725C188.541 16.6689 188.352 16.8623 188.156 17.0146C187.961 17.167 187.734 17.2803 187.477 17.3545C187.223 17.4326 186.912 17.4717 186.545 17.4717C186.158 17.4717 185.812 17.4014 185.508 17.2607C185.203 17.1162 184.963 16.8975 184.787 16.6045C184.611 16.3115 184.523 15.9404 184.523 15.4912C184.523 14.8232 184.771 14.3213 185.268 13.9854C185.768 13.6494 186.521 13.4639 187.529 13.4287L188.654 13.3877V13.0479C188.654 12.5986 188.549 12.2783 188.338 12.0869C188.131 11.8955 187.838 11.7998 187.459 11.7998C187.135 11.7998 186.82 11.8467 186.516 11.9404C186.211 12.0342 185.914 12.1494 185.625 12.2861L185.18 11.3135C185.496 11.1455 185.855 11.0088 186.258 10.9033C186.664 10.7979 187.086 10.7451 187.523 10.7451ZM188.648 14.2549L187.811 14.2842C187.123 14.3076 186.641 14.4248 186.363 14.6357C186.086 14.8467 185.947 15.1357 185.947 15.5029C185.947 15.8232 186.043 16.0576 186.234 16.2061C186.426 16.3506 186.678 16.4229 186.99 16.4229C187.467 16.4229 187.861 16.2881 188.174 16.0186C188.49 15.7451 188.648 15.3447 188.648 14.8174V14.2549ZM194.355 16.3584C194.535 16.3584 194.713 16.3428 194.889 16.3115C195.064 16.2764 195.225 16.2354 195.369 16.1885V17.2314C195.217 17.2979 195.02 17.3545 194.777 17.4014C194.535 17.4482 194.283 17.4717 194.021 17.4717C193.654 17.4717 193.324 17.4111 193.031 17.29C192.738 17.165 192.506 16.9521 192.334 16.6514C192.162 16.3506 192.076 15.9346 192.076 15.4033V11.917H191.191V11.3018L192.141 10.8154L192.592 9.42676H193.459V10.8682H195.316V11.917H193.459V15.3857C193.459 15.7139 193.541 15.958 193.705 16.1182C193.869 16.2783 194.086 16.3584 194.355 16.3584ZM198.064 10.8682V17.3545H196.688V10.8682H198.064ZM197.385 8.38379C197.596 8.38379 197.777 8.44043 197.93 8.55371C198.086 8.66699 198.164 8.8623 198.164 9.13965C198.164 9.41309 198.086 9.6084 197.93 9.72559C197.777 9.83887 197.596 9.89551 197.385 9.89551C197.166 9.89551 196.98 9.83887 196.828 9.72559C196.68 9.6084 196.605 9.41309 196.605 9.13965C196.605 8.8623 196.68 8.66699 196.828 8.55371C196.98 8.44043 197.166 8.38379 197.385 8.38379ZM205.781 14.0967C205.781 14.6357 205.711 15.1143 205.57 15.5322C205.43 15.9502 205.225 16.3037 204.955 16.5928C204.686 16.8779 204.361 17.0967 203.982 17.249C203.604 17.3975 203.176 17.4717 202.699 17.4717C202.254 17.4717 201.846 17.3975 201.475 17.249C201.104 17.0967 200.781 16.8779 200.508 16.5928C200.238 16.3037 200.029 15.9502 199.881 15.5322C199.732 15.1143 199.658 14.6357 199.658 14.0967C199.658 13.3818 199.781 12.7764 200.027 12.2803C200.277 11.7803 200.633 11.3994 201.094 11.1377C201.555 10.876 202.104 10.7451 202.74 10.7451C203.338 10.7451 203.865 10.876 204.322 11.1377C204.779 11.3994 205.137 11.7803 205.395 12.2803C205.652 12.7803 205.781 13.3857 205.781 14.0967ZM201.076 14.0967C201.076 14.5693 201.133 14.9736 201.246 15.3096C201.363 15.6455 201.543 15.9033 201.785 16.083C202.027 16.2588 202.34 16.3467 202.723 16.3467C203.105 16.3467 203.418 16.2588 203.66 16.083C203.902 15.9033 204.08 15.6455 204.193 15.3096C204.307 14.9736 204.363 14.5693 204.363 14.0967C204.363 13.624 204.307 13.2236 204.193 12.8955C204.08 12.5635 203.902 12.3115 203.66 12.1396C203.418 11.9639 203.104 11.876 202.717 11.876C202.146 11.876 201.73 12.0674 201.469 12.4502C201.207 12.833 201.076 13.3818 201.076 14.0967ZM210.744 10.7451C211.475 10.7451 212.043 10.9346 212.449 11.3135C212.859 11.6885 213.064 12.292 213.064 13.124V17.3545H211.688V13.3818C211.688 12.8779 211.584 12.501 211.377 12.251C211.17 11.9971 210.85 11.8701 210.416 11.8701C209.787 11.8701 209.35 12.0635 209.104 12.4502C208.861 12.8369 208.74 13.3975 208.74 14.1318V17.3545H207.363V10.8682H208.436L208.629 11.7471H208.705C208.846 11.5205 209.02 11.335 209.227 11.1904C209.438 11.042 209.672 10.9307 209.93 10.8564C210.191 10.7822 210.463 10.7451 210.744 10.7451ZM220.811 8.65918C221.252 8.65918 221.639 8.73145 221.971 8.87598C222.307 9.02051 222.568 9.23145 222.756 9.50879C222.943 9.78223 223.037 10.1162 223.037 10.5107C223.037 11.0381 222.873 11.4834 222.545 11.8467C222.217 12.21 221.803 12.5342 221.303 12.8193L223.324 14.7881C223.516 14.5264 223.674 14.2393 223.799 13.9268C223.924 13.6104 224.031 13.2783 224.121 12.9307H225.545C225.424 13.415 225.256 13.8936 225.041 14.3662C224.826 14.835 224.555 15.2646 224.227 15.6553L225.967 17.3545H224.203L223.336 16.5049C223.094 16.7002 222.834 16.8701 222.557 17.0146C222.283 17.1592 221.984 17.2725 221.66 17.3545C221.336 17.4326 220.979 17.4717 220.588 17.4717C219.99 17.4717 219.475 17.376 219.041 17.1846C218.607 16.9932 218.273 16.7197 218.039 16.3643C217.809 16.0049 217.693 15.5791 217.693 15.0869C217.693 14.6768 217.762 14.3252 217.898 14.0322C218.039 13.7354 218.238 13.4756 218.496 13.2529C218.754 13.0264 219.062 12.8115 219.422 12.6084C219.227 12.3857 219.057 12.1689 218.912 11.958C218.768 11.7471 218.656 11.5303 218.578 11.3076C218.504 11.0811 218.467 10.8389 218.467 10.5811C218.467 10.1826 218.564 9.84082 218.76 9.55566C218.955 9.2666 219.229 9.0459 219.58 8.89355C219.932 8.7373 220.342 8.65918 220.811 8.65918ZM220.236 13.4463C220.01 13.5908 219.814 13.7373 219.65 13.8857C219.486 14.0303 219.359 14.1904 219.27 14.3662C219.184 14.542 219.141 14.7471 219.141 14.9814C219.141 15.3838 219.281 15.7021 219.562 15.9365C219.848 16.1709 220.215 16.2881 220.664 16.2881C221.059 16.2881 221.404 16.2295 221.701 16.1123C222.002 15.9912 222.264 15.8408 222.486 15.6611L220.236 13.4463ZM220.787 9.74902C220.51 9.74902 220.27 9.82129 220.066 9.96582C219.867 10.1104 219.768 10.335 219.768 10.6396C219.768 10.8857 219.832 11.1182 219.961 11.3369C220.094 11.5518 220.277 11.7842 220.512 12.0342C220.922 11.8076 221.227 11.585 221.426 11.3662C221.629 11.1475 221.73 10.8936 221.73 10.6045C221.73 10.3311 221.639 10.1201 221.455 9.97168C221.271 9.82324 221.049 9.74902 220.787 9.74902ZM230.238 17.3545V8.78809H231.645V17.3545H230.238ZM241.096 10.7451C241.822 10.7451 242.369 10.9326 242.736 11.3076C243.107 11.6826 243.293 12.2842 243.293 13.1123V17.3545H241.916V13.3584C241.916 12.8662 241.82 12.4951 241.629 12.2451C241.438 11.9951 241.146 11.8701 240.756 11.8701C240.209 11.8701 239.814 12.0459 239.572 12.3975C239.334 12.7451 239.215 13.251 239.215 13.915V17.3545H237.838V13.3584C237.838 13.0303 237.795 12.7568 237.709 12.5381C237.627 12.3154 237.5 12.1494 237.328 12.04C237.156 11.9268 236.939 11.8701 236.678 11.8701C236.299 11.8701 235.996 11.9561 235.77 12.1279C235.547 12.2998 235.387 12.5537 235.289 12.8896C235.191 13.2217 235.143 13.6299 235.143 14.1143V17.3545H233.766V10.8682H234.838L235.031 11.7412H235.107C235.24 11.5146 235.404 11.3291 235.6 11.1846C235.799 11.0361 236.02 10.9268 236.262 10.8564C236.504 10.7822 236.756 10.7451 237.018 10.7451C237.502 10.7451 237.91 10.8311 238.242 11.0029C238.574 11.1709 238.822 11.4287 238.986 11.7764H239.092C239.295 11.4248 239.578 11.165 239.941 10.9971C240.305 10.8291 240.689 10.7451 241.096 10.7451ZM248.543 10.7451C249.312 10.7451 249.93 11.0264 250.395 11.5889C250.863 12.1514 251.098 12.9873 251.098 14.0967C251.098 14.8311 250.988 15.4502 250.77 15.9541C250.555 16.4541 250.252 16.833 249.861 17.0908C249.475 17.3447 249.023 17.4717 248.508 17.4717C248.18 17.4717 247.895 17.4287 247.652 17.3428C247.41 17.2568 247.203 17.1455 247.031 17.0088C246.859 16.8682 246.715 16.7158 246.598 16.5518H246.516C246.535 16.708 246.553 16.8818 246.568 17.0732C246.588 17.2607 246.598 17.4326 246.598 17.5889V20.2314H245.215V10.8682H246.34L246.533 11.7646H246.598C246.719 11.5811 246.865 11.4111 247.037 11.2549C247.213 11.0986 247.424 10.9756 247.67 10.8857C247.92 10.792 248.211 10.7451 248.543 10.7451ZM248.174 11.8701C247.795 11.8701 247.49 11.9463 247.26 12.0986C247.033 12.2471 246.867 12.4717 246.762 12.7725C246.66 13.0732 246.605 13.4502 246.598 13.9033V14.0967C246.598 14.5771 246.646 14.9854 246.744 15.3213C246.846 15.6533 247.012 15.9072 247.242 16.083C247.477 16.2549 247.793 16.3408 248.191 16.3408C248.527 16.3408 248.805 16.249 249.023 16.0654C249.246 15.8818 249.412 15.6201 249.521 15.2803C249.631 14.9404 249.686 14.54 249.686 14.0791C249.686 13.3799 249.561 12.8369 249.311 12.4502C249.064 12.0635 248.686 11.8701 248.174 11.8701ZM255.234 10.7451C256.055 10.7451 256.674 10.9268 257.092 11.29C257.514 11.6533 257.725 12.2197 257.725 12.9893V17.3545H256.746L256.482 16.4346H256.436C256.252 16.6689 256.062 16.8623 255.867 17.0146C255.672 17.167 255.445 17.2803 255.188 17.3545C254.934 17.4326 254.623 17.4717 254.256 17.4717C253.869 17.4717 253.523 17.4014 253.219 17.2607C252.914 17.1162 252.674 16.8975 252.498 16.6045C252.322 16.3115 252.234 15.9404 252.234 15.4912C252.234 14.8232 252.482 14.3213 252.979 13.9854C253.479 13.6494 254.232 13.4639 255.24 13.4287L256.365 13.3877V13.0479C256.365 12.5986 256.26 12.2783 256.049 12.0869C255.842 11.8955 255.549 11.7998 255.17 11.7998C254.846 11.7998 254.531 11.8467 254.227 11.9404C253.922 12.0342 253.625 12.1494 253.336 12.2861L252.891 11.3135C253.207 11.1455 253.566 11.0088 253.969 10.9033C254.375 10.7979 254.797 10.7451 255.234 10.7451ZM256.359 14.2549L255.521 14.2842C254.834 14.3076 254.352 14.4248 254.074 14.6357C253.797 14.8467 253.658 15.1357 253.658 15.5029C253.658 15.8232 253.754 16.0576 253.945 16.2061C254.137 16.3506 254.389 16.4229 254.701 16.4229C255.178 16.4229 255.572 16.2881 255.885 16.0186C256.201 15.7451 256.359 15.3447 256.359 14.8174V14.2549ZM262.266 17.4717C261.652 17.4717 261.121 17.3525 260.672 17.1143C260.223 16.876 259.877 16.5107 259.635 16.0186C259.393 15.5264 259.271 14.9014 259.271 14.1436C259.271 13.3545 259.404 12.71 259.67 12.21C259.936 11.71 260.303 11.3408 260.771 11.1025C261.244 10.8643 261.785 10.7451 262.395 10.7451C262.781 10.7451 263.131 10.7842 263.443 10.8623C263.76 10.9365 264.027 11.0283 264.246 11.1377L263.836 12.2393C263.598 12.1416 263.354 12.0596 263.104 11.9932C262.854 11.9268 262.613 11.8936 262.383 11.8936C262.004 11.8936 261.688 11.9775 261.434 12.1455C261.184 12.3135 260.996 12.5635 260.871 12.8955C260.75 13.2275 260.689 13.6396 260.689 14.1318C260.689 14.6084 260.752 15.0107 260.877 15.3389C261.002 15.6631 261.188 15.9092 261.434 16.0771C261.68 16.2412 261.982 16.3232 262.342 16.3232C262.697 16.3232 263.016 16.2803 263.297 16.1943C263.578 16.1084 263.844 15.9971 264.094 15.8604V17.0557C263.848 17.1963 263.584 17.2998 263.303 17.3662C263.021 17.4365 262.676 17.4717 262.266 17.4717ZM268.031 16.3584C268.211 16.3584 268.389 16.3428 268.564 16.3115C268.74 16.2764 268.9 16.2354 269.045 16.1885V17.2314C268.893 17.2979 268.695 17.3545 268.453 17.4014C268.211 17.4482 267.959 17.4717 267.697 17.4717C267.33 17.4717 267 17.4111 266.707 17.29C266.414 17.165 266.182 16.9521 266.01 16.6514C265.838 16.3506 265.752 15.9346 265.752 15.4033V11.917H264.867V11.3018L265.816 10.8154L266.268 9.42676H267.135V10.8682H268.992V11.917H267.135V15.3857C267.135 15.7139 267.217 15.958 267.381 16.1182C267.545 16.2783 267.762 16.3584 268.031 16.3584Z"
            fill="white" />
    </g>
    <defs>
        <filter id="filter0_d_2271_615" x="0.205566" y="4.50879" width="18.5732" height="18.4458"
            filterUnits="userSpaceOnUse" color-interpolation-filters="sRGB">
            <feFlood flood-opacity="0" result="BackgroundImageFix" />
            <feColorMatrix in="SourceAlpha" type="matrix"
                values="0 0 0 0 0 0 0 0 0 0 0 0 0 0 0 0 0 0 127 0" result="hardAlpha" />
            <feOffset dy="0.5" />
            <feGaussianBlur stdDeviation="0.5" />
            <feComposite in2="hardAlpha" operator="out" />
            <feColorMatrix type="matrix" values="0 0 0 0 0 0 0 0 0 0 0 0 0 0 0 0 0 0 0.25 0" />
            <feBlend mode="normal" in2="BackgroundImageFix" result="effect1_dropShadow_2271_615" />
            <feBlend mode="normal" in="SourceGraphic" in2="effect1_dropShadow_2271_615"
                result="shape" />
        </filter>
        <filter id="filter1_d_2271_615" x="23" y="0.354492" width="257" height="28"
            filterUnits="userSpaceOnUse" color-interpolation-filters="sRGB">
            <feFlood flood-opacity="0" result="BackgroundImageFix" />
            <feColorMatrix in="SourceAlpha" type="matrix"
                values="0 0 0 0 0 0 0 0 0 0 0 0 0 0 0 0 0 0 127 0" result="hardAlpha" />
            <feOffset dy="2" />
            <feGaussianBlur stdDeviation="1" />
            <feComposite in2="hardAlpha" operator="out" />
            <feColorMatrix type="matrix" values="0 0 0 0 0 0 0 0 0 0 0 0 0 0 0 0 0 0 0.2 0" />
            <feBlend mode="normal" in2="BackgroundImageFix" result="effect1_dropShadow_2271_615" />
            <feBlend mode="normal" in="SourceGraphic" in2="effect1_dropShadow_2271_615"
                result="shape" />
        </filter>
    </defs>
</svg>