<svg width="91" height="29" viewBox="0 0 91 29" fill="none" xmlns="http://www.w3.org/2000/svg">
    <g filter="url(#filter0_d_2271_619)">
        <path
            d="M1.77561 6.87109L6.94554 20.3129C7.32624 21.3027 8.78325 21.0971 8.87513 20.0405L9.42723 13.6913C9.46931 13.2075 9.85298 12.8238 10.3368 12.7817L16.3648 12.2576C17.4379 12.1642 17.6252 10.6733 16.6085 10.3175L3.03931 5.56825C2.23504 5.28676 1.46972 6.07578 1.77561 6.87109Z"
            fill="#C64AFF" />
        <path
            d="M1.77561 6.87109L6.94554 20.3129C7.32624 21.3027 8.78325 21.0971 8.87513 20.0405L9.42723 13.6913C9.46931 13.2075 9.85298 12.8238 10.3368 12.7817L16.3648 12.2576C17.4379 12.1642 17.6252 10.6733 16.6085 10.3175L3.03931 5.56825C2.23504 5.28676 1.46972 6.07578 1.77561 6.87109Z"
            stroke="white" />
    </g>
    <g filter="url(#filter1_d_2271_619)">
        <rect x="25" y="0.354492" width="64" height="24" rx="4" fill="#C64AFF"
            shape-rendering="crispEdges" />
        <rect x="25.5" y="0.854492" width="63" height="23" rx="3.5" stroke="white"
            shape-rendering="crispEdges" />
        <path
            d="M40.8516 8.78809V14.3311C40.8516 14.9287 40.7246 15.4639 40.4707 15.9365C40.2207 16.4092 39.8418 16.7842 39.334 17.0615C38.8262 17.335 38.1875 17.4717 37.418 17.4717C36.3203 17.4717 35.4844 17.1846 34.9102 16.6104C34.3398 16.0322 34.0547 15.2646 34.0547 14.3076V8.78809H35.4609V14.1846C35.4609 14.8994 35.6289 15.4268 35.9648 15.7666C36.3008 16.1064 36.8027 16.2764 37.4707 16.2764C37.9316 16.2764 38.3066 16.1963 38.5957 16.0361C38.8887 15.8721 39.1035 15.6338 39.2402 15.3213C39.3809 15.0049 39.4512 14.624 39.4512 14.1787V8.78809H40.8516ZM49.3652 17.3545H47.7656L45.6094 13.8447L43.4414 17.3545H41.9355L44.7832 12.9131L42.1289 8.78809H43.6816L45.6738 12.0342L47.6543 8.78809H49.1602L46.4941 12.9541L49.3652 17.3545ZM53.6367 17.3545V8.78809H55.043V16.1592H58.6816V17.3545H53.6367ZM62.6074 10.7451C63.1855 10.7451 63.6816 10.8643 64.0957 11.1025C64.5098 11.3408 64.8281 11.6787 65.0508 12.1162C65.2734 12.5537 65.3848 13.0771 65.3848 13.6865V14.4248H61.0547C61.0703 15.0537 61.2383 15.5381 61.5586 15.8779C61.8828 16.2178 62.3359 16.3877 62.918 16.3877C63.332 16.3877 63.7031 16.3486 64.0312 16.2705C64.3633 16.1885 64.7051 16.0693 65.0566 15.9131V17.0322C64.7324 17.1846 64.4023 17.2959 64.0664 17.3662C63.7305 17.4365 63.3281 17.4717 62.8594 17.4717C62.2227 17.4717 61.6621 17.3486 61.1777 17.1025C60.6973 16.8525 60.3203 16.4814 60.0469 15.9893C59.7773 15.4971 59.6426 14.8857 59.6426 14.1553C59.6426 13.4287 59.7656 12.8115 60.0117 12.3037C60.2578 11.7959 60.6035 11.4092 61.0488 11.1436C61.4941 10.8779 62.0137 10.7451 62.6074 10.7451ZM62.6074 11.7822C62.1738 11.7822 61.8223 11.9229 61.5527 12.2041C61.2871 12.4854 61.1309 12.8975 61.084 13.4404H64.0371C64.0332 13.1162 63.9785 12.8291 63.873 12.5791C63.7715 12.3291 63.6152 12.1338 63.4043 11.9932C63.1973 11.8525 62.9316 11.7822 62.6074 11.7822ZM69.4805 10.7451C70.3008 10.7451 70.9199 10.9268 71.3379 11.29C71.7598 11.6533 71.9707 12.2197 71.9707 12.9893V17.3545H70.9922L70.7285 16.4346H70.6816C70.498 16.6689 70.3086 16.8623 70.1133 17.0146C69.918 17.167 69.6914 17.2803 69.4336 17.3545C69.1797 17.4326 68.8691 17.4717 68.502 17.4717C68.1152 17.4717 67.7695 17.4014 67.4648 17.2607C67.1602 17.1162 66.9199 16.8975 66.7441 16.6045C66.5684 16.3115 66.4805 15.9404 66.4805 15.4912C66.4805 14.8232 66.7285 14.3213 67.2246 13.9854C67.7246 13.6494 68.4785 13.4639 69.4863 13.4287L70.6113 13.3877V13.0479C70.6113 12.5986 70.5059 12.2783 70.2949 12.0869C70.0879 11.8955 69.7949 11.7998 69.416 11.7998C69.0918 11.7998 68.7773 11.8467 68.4727 11.9404C68.168 12.0342 67.8711 12.1494 67.582 12.2861L67.1367 11.3135C67.4531 11.1455 67.8125 11.0088 68.2148 10.9033C68.6211 10.7979 69.043 10.7451 69.4805 10.7451ZM70.6055 14.2549L69.7676 14.2842C69.0801 14.3076 68.5977 14.4248 68.3203 14.6357C68.043 14.8467 67.9043 15.1357 67.9043 15.5029C67.9043 15.8232 68 16.0576 68.1914 16.2061C68.3828 16.3506 68.6348 16.4229 68.9473 16.4229C69.4238 16.4229 69.8184 16.2881 70.1309 16.0186C70.4473 15.7451 70.6055 15.3447 70.6055 14.8174V14.2549ZM76.0781 17.4717C75.3047 17.4717 74.6836 17.1904 74.2148 16.6279C73.75 16.0615 73.5176 15.2275 73.5176 14.126C73.5176 13.0127 73.7539 12.1709 74.2266 11.6006C74.7031 11.0303 75.3301 10.7451 76.1074 10.7451C76.4355 10.7451 76.7227 10.79 76.9688 10.8799C77.2148 10.9658 77.4258 11.083 77.6016 11.2314C77.7812 11.3799 77.9336 11.5459 78.0586 11.7295H78.123C78.1035 11.6084 78.0801 11.4346 78.0527 11.208C78.0293 10.9775 78.0176 10.7646 78.0176 10.5693V8.2373H79.4004V17.3545H78.3223L78.0762 16.4697H78.0176C77.9004 16.6572 77.752 16.8271 77.5723 16.9795C77.3965 17.1279 77.1855 17.2471 76.9395 17.3369C76.6973 17.4268 76.4102 17.4717 76.0781 17.4717ZM76.4648 16.3525C77.0547 16.3525 77.4707 16.1826 77.7129 15.8428C77.9551 15.5029 78.0801 14.9932 78.0879 14.3135V14.1318C78.0879 13.4053 77.9707 12.8486 77.7363 12.4619C77.502 12.0713 77.0742 11.876 76.4531 11.876C75.957 11.876 75.5781 12.0771 75.3164 12.4795C75.0586 12.8779 74.9297 13.4346 74.9297 14.1494C74.9297 14.8643 75.0586 15.4111 75.3164 15.79C75.5781 16.165 75.9609 16.3525 76.4648 16.3525Z"
            fill="white" />
    </g>
    <defs>
        <filter id="filter0_d_2271_619" x="0.205566" y="4.50879" width="18.5732" height="18.4458"
            filterUnits="userSpaceOnUse" color-interpolation-filters="sRGB">
            <feFlood flood-opacity="0" result="BackgroundImageFix" />
            <feColorMatrix in="SourceAlpha" type="matrix"
                values="0 0 0 0 0 0 0 0 0 0 0 0 0 0 0 0 0 0 127 0" result="hardAlpha" />
            <feOffset dy="0.5" />
            <feGaussianBlur stdDeviation="0.5" />
            <feComposite in2="hardAlpha" operator="out" />
            <feColorMatrix type="matrix" values="0 0 0 0 0 0 0 0 0 0 0 0 0 0 0 0 0 0 0.25 0" />
            <feBlend mode="normal" in2="BackgroundImageFix" result="effect1_dropShadow_2271_619" />
            <feBlend mode="normal" in="SourceGraphic" in2="effect1_dropShadow_2271_619"
                result="shape" />
        </filter>
        <filter id="filter1_d_2271_619" x="23" y="0.354492" width="68" height="28"
            filterUnits="userSpaceOnUse" color-interpolation-filters="sRGB">
            <feFlood flood-opacity="0" result="BackgroundImageFix" />
            <feColorMatrix in="SourceAlpha" type="matrix"
                values="0 0 0 0 0 0 0 0 0 0 0 0 0 0 0 0 0 0 127 0" result="hardAlpha" />
            <feOffset dy="2" />
            <feGaussianBlur stdDeviation="1" />
            <feComposite in2="hardAlpha" operator="out" />
            <feColorMatrix type="matrix" values="0 0 0 0 0 0 0 0 0 0 0 0 0 0 0 0 0 0 0.2 0" />
            <feBlend mode="normal" in2="BackgroundImageFix" result="effect1_dropShadow_2271_619" />
            <feBlend mode="normal" in="SourceGraphic" in2="effect1_dropShadow_2271_619"
                result="shape" />
        </filter>
    </defs>
</svg>
    