<svg width="110" height="120" viewBox="0 0 110 120" fill="none" xmlns="http://www.w3.org/2000/svg">
<path d="M37.9971 16.1504C50.1603 16.2051 62.23 18.236 73.7412 22.1641V22.165C74.9582 22.5856 75.7777 23.7285 75.7852 25.0205L75.8125 27.5605C75.9141 35.139 76.084 47.7863 73.1816 60.7178C70.3246 73.4469 64.4941 86.4347 52.707 95.1348L52.1416 95.5439C48.382 98.3645 44.3313 100.774 40.0566 102.728L39.1982 103.112C38.8185 103.268 38.4133 103.35 38.0049 103.35C37.5944 103.35 37.1892 103.271 36.8145 103.111L36.7861 103.1H36.7832C32.2027 101.083 27.8706 98.5465 23.8682 95.5439L23.8652 95.542L23.2998 95.1309C11.5123 86.4308 5.68133 73.4431 2.82422 60.7139C0.284587 49.3989 0.0979272 38.3014 0.15918 30.627L0.194336 27.5566C0.204265 26.7756 0.212593 26.047 0.217773 25.374L0.223633 25.3799L0.225586 25.0205C0.233033 23.7322 1.04876 22.5895 2.26562 22.1689L2.26465 22.168C13.7719 18.2359 25.8377 16.205 37.9971 16.1504ZM37.9971 18.9746C26.1529 19.0294 14.3949 21.0093 3.18359 24.8389L3.08594 24.8721L3.08203 24.9746C3.04678 25.809 3.03515 26.6665 3.02344 27.5957C2.92384 34.9291 2.75664 47.2 5.50586 59.7031C8.25504 72.2059 13.9248 84.9605 25.5117 93.2422C29.3445 96.1351 33.5026 98.57 37.8984 100.504L37.9307 100.429L37.9219 100.514C37.977 100.526 38.0325 100.527 38.0889 100.513L38.1006 100.509L38.1123 100.504C42.5082 98.5701 46.6659 96.1358 50.498 93.2432C62.0853 84.961 67.7552 72.2059 70.5049 59.7031C72.9109 48.7631 73.0848 38.0008 73.0254 30.5684L72.9912 27.5957C72.9795 26.6696 72.9678 25.8147 72.9639 25.0381L72.9629 24.8887H72.834C68.3199 23.3086 63.7009 22.0473 59.0117 21.1104C52.0922 19.7257 45.0545 19.0098 37.999 18.9746H37.9971Z" fill="black" stroke="white" stroke-width="0.3"/>
<path d="M38.0283 22.3999C44.8505 22.435 51.6496 23.1255 58.3389 24.4673C61.7715 25.1577 65.2165 26.0312 68.5791 27.061C69.1282 27.2299 69.5162 27.7152 69.5684 28.2817L69.5742 28.396C69.6582 34.7751 69.8105 46.4215 67.2285 58.4126C64.6651 70.3169 59.4109 82.5377 48.7451 90.2876V90.2788L48.5059 90.4585C45.594 92.636 42.5005 94.5598 39.2578 96.2046L38.6074 96.5298C38.4224 96.6205 38.214 96.6655 38.0049 96.6655C37.8483 96.6655 37.6923 96.6397 37.5459 96.5884L37.4033 96.5288C33.9234 94.8141 30.6109 92.7802 27.5049 90.4614L27.5029 90.4595L26.999 90.0933C16.5097 82.3343 11.3228 70.2157 8.78125 58.4097C6.52244 47.917 6.35704 37.6884 6.40723 31.022L6.43652 28.3921C6.44358 27.7779 6.84554 27.2413 7.43164 27.061C10.7862 26.0313 14.2307 25.1578 17.6709 24.4712L17.792 24.4468V24.4429C24.458 23.1168 31.2315 22.4309 38.0283 22.3999ZM38.0283 25.2241C31.3781 25.2554 24.7469 25.9322 18.2295 27.2388C15.2525 27.8373 12.2719 28.5734 9.35352 29.4341L9.24707 29.4653L9.24609 29.5757C9.1621 36.5961 9.1579 47.6781 11.6611 58.7827C14.1641 69.8861 19.1789 81.032 29.1484 88.1597C31.9239 90.2265 34.8636 92.0625 37.9365 93.6519L38.0059 93.688L38.0742 93.6519C41.1518 92.0622 44.093 90.2261 46.8691 88.1548L46.8682 88.1538C56.8362 81.028 61.8501 69.884 64.3525 58.7817C66.8553 47.6778 66.8506 36.5959 66.7686 29.5757L66.7676 29.4653L66.6611 29.4341L65.5615 29.1167C62.991 28.3906 60.3867 27.759 57.7852 27.2388L57.7705 27.2358H57.7666C51.2658 25.9312 44.6589 25.2592 38.0293 25.2241H38.0283Z" fill="black" stroke="white" stroke-width="0.3"/>
<path d="M50.5059 42.2432C52.0517 42.2394 53.541 42.8517 54.6377 43.9482C55.7307 45.0451 56.3437 46.5308 56.3438 48.0811L56.3359 48.3701C56.2607 49.8139 55.651 51.1802 54.6191 52.2051H54.6182L37.3955 69.4287C36.3925 70.4356 35.0282 71.0018 33.6035 70.998H33.6025C32.1893 71.0018 30.833 70.4424 29.834 69.4434L21.373 60.9834H21.374C19.7655 59.36 19.2542 56.9542 20.0479 54.8213L20.1279 54.6152C21.0023 52.5049 23.0246 51.1023 25.2969 51.0098L25.5176 51.0049H25.5332C27.0752 51.0011 28.5606 51.6135 29.6494 52.71V52.7109L33.5361 56.5977L33.6426 56.7031L46.3809 43.9648L46.4707 43.874C47.5541 42.8305 48.9988 42.2469 50.5059 42.2432ZM50.5049 45.0635C49.7033 45.0676 48.9388 45.3922 48.376 45.9629L34.6426 59.6973C34.3779 59.9619 34.0171 60.1104 33.6426 60.1104C33.2682 60.1103 32.9082 59.9618 32.6436 59.6973L27.6514 54.7051C27.0919 54.1456 26.3268 53.8291 25.5332 53.8291H25.5254C24.3091 53.8332 23.2079 54.5685 22.7393 55.6904H22.7383C22.27 56.8158 22.5168 58.1148 23.3721 58.9824L23.373 58.9834L31.833 67.4453H31.834C32.8263 68.4252 34.4164 68.4174 35.4004 67.4297L52.6211 50.207L52.6221 50.208C53.1936 49.6489 53.5182 48.8837 53.5225 48.082C53.5266 47.2802 53.2099 46.5106 52.6426 45.9434C52.0753 45.3762 51.3065 45.0594 50.5049 45.0635Z" fill="black" stroke="white" stroke-width="0.3"/>
</svg>
