<svg width="10" height="10" viewBox="0 0 10 10" fill="none" xmlns="http://www.w3.org/2000/svg">
    <path
        d="M5.05521 4.13895C5.06696 4.10354 5.08957 4.07273 5.11982 4.05089C5.15007 4.02906 5.18644 4.0173 5.22375 4.0173C5.26106 4.0173 5.29742 4.02906 5.32767 4.05089C5.35793 4.07273 5.38053 4.10354 5.39228 4.13895L5.70893 5.09006C5.77865 5.29914 5.8961 5.48911 6.05198 5.64493C6.20786 5.80074 6.39789 5.91811 6.607 5.98774L7.55771 6.30438C7.59312 6.31613 7.62393 6.33874 7.64577 6.36899C7.66761 6.39924 7.67936 6.43561 7.67936 6.47292C7.67936 6.51023 7.66761 6.54659 7.64577 6.57684C7.62393 6.6071 7.59312 6.6297 7.55771 6.64145L6.6066 6.9581C6.39752 7.02782 6.20755 7.14527 6.05174 7.30115C5.89593 7.45703 5.77856 7.64706 5.70893 7.85617L5.39228 8.80688C5.38073 8.84249 5.35821 8.87352 5.32793 8.89553C5.29765 8.91754 5.26118 8.9294 5.22375 8.9294C5.18631 8.9294 5.14984 8.91754 5.11957 8.89553C5.08929 8.87352 5.06676 8.84249 5.05521 8.80688L4.73857 7.85578C4.66889 7.64674 4.55149 7.45679 4.39568 7.30098C4.23987 7.14517 4.04993 7.02778 3.84089 6.9581L2.88978 6.64145C2.85418 6.6299 2.82314 6.60738 2.80113 6.5771C2.77912 6.54682 2.76727 6.51035 2.76727 6.47292C2.76727 6.43549 2.77912 6.39901 2.80113 6.36874C2.82314 6.33846 2.85418 6.31593 2.88978 6.30438L3.84089 5.98774C4.04993 5.91806 4.23987 5.80066 4.39568 5.64485C4.55149 5.48904 4.66889 5.2991 4.73857 5.09006L5.05521 4.13895ZM3.1585 1.63488C3.16549 1.61357 3.17903 1.59501 3.1972 1.58185C3.21537 1.56869 3.23723 1.5616 3.25966 1.5616C3.28209 1.5616 3.30395 1.56869 3.32211 1.58185C3.34028 1.59501 3.35383 1.61357 3.36082 1.63488L3.55096 2.2057C3.59283 2.33109 3.66329 2.44503 3.75676 2.53851C3.85024 2.63198 3.96418 2.70244 4.08957 2.74431L4.66039 2.93445C4.6817 2.94144 4.70027 2.95499 4.71343 2.97316C4.72658 2.99132 4.73367 3.01318 4.73367 3.03561C4.73367 3.05805 4.72658 3.0799 4.71343 3.09807C4.70027 3.11624 4.6817 3.12978 4.66039 3.13677L4.08957 3.32692C3.96408 3.36868 3.85003 3.4391 3.75648 3.53258C3.66292 3.62607 3.59242 3.74006 3.55057 3.86552L3.36082 4.43595C3.35383 4.45727 3.34028 4.47583 3.32211 4.48899C3.30395 4.50215 3.28209 4.50923 3.25966 4.50923C3.23723 4.50923 3.21537 4.50215 3.1972 4.48899C3.17903 4.47583 3.16549 4.45727 3.1585 4.43595L2.96835 3.86552C2.92659 3.74003 2.85618 3.62599 2.76269 3.53243C2.6692 3.43888 2.55521 3.36838 2.42975 3.32652L1.85893 3.13677C1.83761 3.12978 1.81905 3.11624 1.80589 3.09807C1.79273 3.0799 1.78564 3.05805 1.78564 3.03561C1.78564 3.01318 1.79273 2.99132 1.80589 2.97316C1.81905 2.95499 1.83761 2.94144 1.85893 2.93445L2.42975 2.74431C2.55517 2.70249 2.66913 2.63206 2.76262 2.53857C2.8561 2.44509 2.92654 2.33112 2.96835 2.2057L3.1585 1.63488ZM6.62978 1.11985C6.63454 1.10575 6.6436 1.0935 6.65569 1.08482C6.66777 1.07614 6.68228 1.07147 6.69716 1.07147C6.71204 1.07147 6.72654 1.07614 6.73863 1.08482C6.75072 1.0935 6.75978 1.10575 6.76453 1.11985L6.89143 1.50013C6.91923 1.58389 6.9662 1.66001 7.02861 1.72242C7.09101 1.78482 7.16713 1.8318 7.25089 1.8596L7.63118 1.98649C7.64527 1.99125 7.65753 2.00031 7.6662 2.01239C7.67488 2.02448 7.67955 2.03898 7.67955 2.05386C7.67955 2.06874 7.67488 2.08325 7.6662 2.09533C7.65753 2.10742 7.64527 2.11648 7.63118 2.12124L7.25089 2.24813C7.16716 2.27599 7.09107 2.32298 7.02867 2.38538C6.96627 2.44778 6.91928 2.52386 6.89143 2.6076L6.76453 2.98788C6.75969 3.00184 6.75062 3.01395 6.73858 3.02251C6.72654 3.03108 6.71213 3.03568 6.69735 3.03568C6.68258 3.03568 6.66817 3.03108 6.65613 3.02251C6.64409 3.01395 6.63502 3.00184 6.63018 2.98788L6.50328 2.6076C6.47543 2.52386 6.42844 2.44778 6.36604 2.38538C6.30364 2.32298 6.22755 2.27599 6.14382 2.24813L5.76432 2.12124C5.75022 2.11648 5.73797 2.10742 5.72929 2.09533C5.72061 2.08325 5.71595 2.06874 5.71595 2.05386C5.71595 2.03898 5.72061 2.02448 5.72929 2.01239C5.73797 2.00031 5.75022 1.99125 5.76432 1.98649L6.1446 1.8596C6.22837 1.8318 6.30448 1.78482 6.36689 1.72242C6.42929 1.66001 6.47627 1.58389 6.50407 1.50013L6.63018 1.12063L6.62978 1.11985Z"
        fill="url(#paint0_linear_2688_20103)" />
    <defs>
        <linearGradient id="paint0_linear_2688_20103" x1="4.7326" y1="1.07147" x2="4.7326"
            y2="8.9294" gradientUnits="userSpaceOnUse">
            <stop stop-color="#FF904A" />
            <stop offset="1" stop-color="#E93A3A" />
        </linearGradient>
    </defs>
</svg>
    