<svg width="118" height="23" viewBox="0 0 118 23" fill="none" xmlns="http://www.w3.org/2000/svg">
    <rect width="118" height="22.2482" rx="6" fill="white" />
    <path
        d="M14.2705 6.66666V9.90089C14.2705 12.2312 16.1371 14.1623 18.4674 14.1799C19.0248 14.1838 19.5775 14.0773 20.0937 13.8667C20.6098 13.656 21.0792 13.3454 21.4747 12.9525C21.8703 12.5597 22.1842 12.0925 22.3984 11.5778C22.6127 11.0632 22.7229 10.5112 22.7229 9.95372V6.66666C22.7229 6.54212 22.6735 6.42268 22.5854 6.33462C22.4973 6.24656 22.3779 6.19708 22.2534 6.19708H14.7401C14.6155 6.19708 14.4961 6.24656 14.408 6.33462C14.32 6.42268 14.2705 6.54212 14.2705 6.66666Z"
        stroke="#31B5A5" stroke-width="1.12649" stroke-linecap="round" stroke-linejoin="round" />
    <path d="M16.6182 16.5277H20.3748" stroke="#31B5A5" stroke-width="1.12649"
        stroke-linecap="round" stroke-linejoin="round" />
    <path d="M18.4966 14.1799V16.5278" stroke="#31B5A5" stroke-width="1.12649"
        stroke-linecap="round" stroke-linejoin="round" />
    <path
        d="M22.6172 10.8928H23.1924C23.6906 10.8928 24.1683 10.6949 24.5206 10.3426C24.8728 9.99037 25.0707 9.51261 25.0707 9.01445V8.07529C25.0707 7.95075 25.0213 7.83131 24.9332 7.74325C24.8451 7.65519 24.7257 7.60571 24.6012 7.60571H22.7228"
        stroke="#31B5A5" stroke-width="1.12649" stroke-linecap="round" stroke-linejoin="round" />
    <path
        d="M14.3877 10.8928H13.7948C13.2967 10.8928 12.8189 10.6949 12.4667 10.3426C12.1144 9.99037 11.9165 9.51261 11.9165 9.01445V8.07529C11.9165 7.95075 11.966 7.83131 12.054 7.74325C12.1421 7.65519 12.2615 7.60571 12.3861 7.60571H14.2644"
        stroke="#31B5A5" stroke-width="1.12649" stroke-linecap="round" stroke-linejoin="round" />
    <path
        d="M36.3697 13.9141V13.1791L38.7185 10.9486C38.9156 10.7627 39.0621 10.5994 39.1578 10.4586C39.2536 10.3178 39.3155 10.1882 39.3437 10.0699C39.3775 9.94603 39.3944 9.83056 39.3944 9.72354C39.3944 9.45319 39.3014 9.24478 39.1156 9.09834C38.9297 8.94626 38.6565 8.87023 38.296 8.87023C38.0088 8.87023 37.7469 8.92092 37.5103 9.0223C37.2794 9.12369 37.0794 9.27858 36.9105 9.48698L36.1416 8.89557C36.3726 8.58579 36.6823 8.34641 37.071 8.17743C37.4653 8.00283 37.9046 7.91552 38.389 7.91552C38.8171 7.91552 39.1888 7.98593 39.5042 8.12674C39.8253 8.26192 40.0703 8.45624 40.2392 8.7097C40.4139 8.96316 40.5012 9.2645 40.5012 9.61371C40.5012 9.80521 40.4758 9.99672 40.4251 10.1882C40.3744 10.3741 40.2787 10.5712 40.1379 10.7796C39.9971 10.988 39.7915 11.2218 39.5211 11.4809L37.5019 13.3987L37.2738 12.9847H40.7293V13.9141H36.3697ZM44.2442 9.3518C44.6047 9.3518 44.9257 9.42221 45.2073 9.56302C45.4946 9.70383 45.7199 9.92068 45.8832 10.2136C46.0466 10.5008 46.1282 10.8726 46.1282 11.3288V13.9141H45.0722V11.464C45.0722 11.0641 44.9764 10.7655 44.7849 10.5684C44.599 10.3713 44.3371 10.2727 43.9992 10.2727C43.7513 10.2727 43.5317 10.3234 43.3402 10.4248C43.1487 10.5262 42.9994 10.6782 42.8924 10.881C42.791 11.0782 42.7403 11.3288 42.7403 11.6329V13.9141H41.6842V9.40249H42.6896V10.6191L42.5122 10.2474C42.6699 9.96011 42.898 9.74044 43.1966 9.58836C43.5007 9.43066 43.8499 9.3518 44.2442 9.3518ZM49.3856 13.9732C48.9519 13.9732 48.5605 13.8775 48.2112 13.686C47.8677 13.4888 47.5973 13.2185 47.4002 12.8749C47.203 12.5313 47.1045 12.1258 47.1045 11.6583C47.1045 11.1908 47.203 10.7853 47.4002 10.4417C47.5973 10.0981 47.8677 9.83056 48.2112 9.63906C48.5605 9.44755 48.9519 9.3518 49.3856 9.3518C49.763 9.3518 50.1009 9.43629 50.3995 9.60526C50.698 9.7686 50.9345 10.0192 51.1091 10.3572C51.2837 10.6951 51.3711 11.1288 51.3711 11.6583C51.3711 12.1821 51.2866 12.6158 51.1176 12.9594C50.9486 13.2973 50.7149 13.5508 50.4164 13.7198C50.1178 13.8887 49.7743 13.9732 49.3856 13.9732ZM49.5123 13.0692C49.7658 13.0692 49.9911 13.0129 50.1882 12.9003C50.391 12.7876 50.5515 12.6243 50.6698 12.4102C50.7937 12.1962 50.8557 11.9455 50.8557 11.6583C50.8557 11.3654 50.7937 11.1148 50.6698 10.9064C50.5515 10.6923 50.391 10.529 50.1882 10.4163C49.9911 10.3037 49.7658 10.2474 49.5123 10.2474C49.2589 10.2474 49.0308 10.3037 48.828 10.4163C48.6309 10.529 48.4703 10.6923 48.3464 10.9064C48.2281 11.1148 48.169 11.3654 48.169 11.6583C48.169 11.9455 48.2281 12.1962 48.3464 12.4102C48.4703 12.6243 48.6309 12.7876 48.828 12.9003C49.0308 13.0129 49.2589 13.0692 49.5123 13.0692ZM50.881 13.9141V12.8496L50.9233 11.6498L50.8388 10.4501V7.64517H51.8864V13.9141H50.881ZM55.7128 13.9141V8.00001H58.146C58.6698 8.00001 59.1176 8.0845 59.4893 8.25347C59.8667 8.42245 60.1568 8.66464 60.3595 8.98006C60.5623 9.29548 60.6637 9.67004 60.6637 10.1037C60.6637 10.5374 60.5623 10.912 60.3595 11.2274C60.1568 11.5372 59.8667 11.7766 59.4893 11.9455C59.1176 12.1089 58.6698 12.1906 58.146 12.1906H56.3211L56.8111 11.6921V13.9141H55.7128ZM59.5823 13.9141L58.0868 11.7681H59.2612L60.7651 13.9141H59.5823ZM56.8111 11.8104L56.3211 11.2866H58.0953C58.5797 11.2866 58.943 11.1824 59.1852 10.9739C59.433 10.7655 59.5569 10.4755 59.5569 10.1037C59.5569 9.72636 59.433 9.43629 59.1852 9.23352C58.943 9.03075 58.5797 8.92937 58.0953 8.92937H56.3211L56.8111 8.38865V11.8104ZM63.7005 13.9732C63.3175 13.9732 62.9796 13.9028 62.6867 13.762C62.3938 13.6156 62.1657 13.3959 62.0023 13.103C61.839 12.8045 61.7573 12.4299 61.7573 11.9793V9.40249H62.8134V11.8357C62.8134 12.2413 62.9035 12.5454 63.0838 12.7482C63.2696 12.9453 63.5316 13.0439 63.8695 13.0439C64.1173 13.0439 64.3314 12.9932 64.5116 12.8918C64.6975 12.7904 64.8411 12.6383 64.9425 12.4356C65.0495 12.2328 65.103 11.9822 65.103 11.6836V9.40249H66.1591V13.9141H65.1537V12.6975L65.3311 13.0692C65.179 13.3621 64.9566 13.5874 64.6637 13.7451C64.3708 13.8972 64.0497 13.9732 63.7005 13.9732ZM70.1018 9.3518C70.4623 9.3518 70.7833 9.42221 71.0649 9.56302C71.3522 9.70383 71.5775 9.92068 71.7408 10.2136C71.9042 10.5008 71.9859 10.8726 71.9859 11.3288V13.9141H70.9298V11.464C70.9298 11.0641 70.834 10.7655 70.6425 10.5684C70.4566 10.3713 70.1947 10.2727 69.8568 10.2727C69.609 10.2727 69.3893 10.3234 69.1978 10.4248C69.0063 10.5262 68.857 10.6782 68.75 10.881C68.6486 11.0782 68.5979 11.3288 68.5979 11.6329V13.9141H67.5418V9.40249H68.5472V10.6191L68.3698 10.2474C68.5275 9.96011 68.7556 9.74044 69.0542 9.58836C69.3583 9.43066 69.7075 9.3518 70.1018 9.3518ZM75.8855 9.3518C76.246 9.3518 76.567 9.42221 76.8487 9.56302C77.1359 9.70383 77.3612 9.92068 77.5246 10.2136C77.6879 10.5008 77.7696 10.8726 77.7696 11.3288V13.9141H76.7135V11.464C76.7135 11.0641 76.6177 10.7655 76.4262 10.5684C76.2404 10.3713 75.9784 10.2727 75.6405 10.2727C75.3927 10.2727 75.173 10.3234 74.9815 10.4248C74.79 10.5262 74.6407 10.6782 74.5337 10.881C74.4323 11.0782 74.3816 11.3288 74.3816 11.6329V13.9141H73.3256V9.40249H74.331V10.6191L74.1535 10.2474C74.3112 9.96011 74.5394 9.74044 74.8379 9.58836C75.142 9.43066 75.4912 9.3518 75.8855 9.3518ZM81.2382 13.9732C80.7369 13.9732 80.2975 13.8747 79.9202 13.6775C79.5484 13.4748 79.2583 13.1988 79.0499 12.8496C78.8472 12.5003 78.7458 12.1033 78.7458 11.6583C78.7458 11.2077 78.8444 10.8106 79.0415 10.467C79.2443 10.1178 79.5203 9.84464 79.8695 9.64751C80.2243 9.45037 80.627 9.3518 81.0776 9.3518C81.517 9.3518 81.9084 9.44755 82.252 9.63906C82.5956 9.83056 82.8659 10.1009 83.0631 10.4501C83.2602 10.7993 83.3588 11.2105 83.3588 11.6836C83.3588 11.7287 83.356 11.7794 83.3503 11.8357C83.3503 11.892 83.3475 11.9455 83.3419 11.9962H79.5822V11.295H82.7843L82.3703 11.5147C82.3759 11.2556 82.3224 11.0275 82.2098 10.8303C82.0971 10.6332 81.9422 10.4783 81.7451 10.3656C81.5536 10.253 81.3311 10.1967 81.0776 10.1967C80.8185 10.1967 80.5904 10.253 80.3933 10.3656C80.2018 10.4783 80.0497 10.636 79.9371 10.8388C79.83 11.0359 79.7765 11.2697 79.7765 11.54V11.709C79.7765 11.9793 79.8385 12.2187 79.9624 12.4271C80.0863 12.6355 80.2609 12.796 80.4862 12.9087C80.7115 13.0213 80.9706 13.0777 81.2635 13.0777C81.517 13.0777 81.7451 13.0382 81.9478 12.9594C82.1506 12.8805 82.3308 12.7566 82.4886 12.5876L83.0546 13.2382C82.8519 13.4748 82.5956 13.6578 82.2858 13.7874C81.9816 13.9113 81.6324 13.9732 81.2382 13.9732ZM84.3732 13.9141V9.40249H85.3786V10.6445L85.2603 10.2812C85.3955 9.977 85.6067 9.74607 85.894 9.58836C86.1869 9.43066 86.5502 9.3518 86.9839 9.3518V10.3572C86.9388 10.3459 86.8965 10.3403 86.8571 10.3403C86.8177 10.3347 86.7783 10.3318 86.7388 10.3318C86.3389 10.3318 86.0207 10.4501 85.7841 10.6867C85.5476 10.9176 85.4293 11.264 85.4293 11.7259V13.9141H84.3732ZM92.9004 13.9986C92.0893 13.9986 91.4528 13.7705 90.991 13.3142C90.5347 12.858 90.3066 12.199 90.3066 11.3372V8.00001H91.405V11.295C91.405 11.9033 91.5345 12.3455 91.7936 12.6214C92.0583 12.8974 92.4301 13.0354 92.9088 13.0354C93.3876 13.0354 93.7565 12.8974 94.0156 12.6214C94.2747 12.3455 94.4042 11.9033 94.4042 11.295V8.00001H95.4857V11.3372C95.4857 12.199 95.2547 12.858 94.7929 13.3142C94.3367 13.7705 93.7058 13.9986 92.9004 13.9986ZM99.4233 13.9732C99.0572 13.9732 98.722 13.8887 98.4179 13.7198C98.1194 13.5508 97.88 13.2973 97.6998 12.9594C97.5252 12.6158 97.4378 12.1821 97.4378 11.6583C97.4378 11.1288 97.5223 10.6951 97.6913 10.3572C97.8659 10.0192 98.1025 9.7686 98.401 9.60526C98.6995 9.43629 99.0403 9.3518 99.4233 9.3518C99.8683 9.3518 100.26 9.44755 100.598 9.63906C100.941 9.83056 101.212 10.0981 101.409 10.4417C101.612 10.7853 101.713 11.1908 101.713 11.6583C101.713 12.1258 101.612 12.5341 101.409 12.8834C101.212 13.2269 100.941 13.4945 100.598 13.686C100.26 13.8775 99.8683 13.9732 99.4233 13.9732ZM96.9225 15.5531V9.40249H97.9279V10.467L97.8941 11.6667L97.9786 12.8665V15.5531H96.9225ZM99.305 13.0692C99.5585 13.0692 99.7838 13.0129 99.9809 12.9003C100.184 12.7876 100.344 12.6243 100.462 12.4102C100.581 12.1962 100.64 11.9455 100.64 11.6583C100.64 11.3654 100.581 11.1148 100.462 10.9064C100.344 10.6923 100.184 10.529 99.9809 10.4163C99.7838 10.3037 99.5585 10.2474 99.305 10.2474C99.0515 10.2474 98.8234 10.3037 98.6207 10.4163C98.4179 10.529 98.2574 10.6923 98.1391 10.9064C98.0208 11.1148 97.9617 11.3654 97.9617 11.6583C97.9617 11.9455 98.0208 12.1962 98.1391 12.4102C98.2574 12.6243 98.4179 12.7876 98.6207 12.9003C98.8234 13.0129 99.0515 13.0692 99.305 13.0692Z"
        fill="#00554E" />
</svg>
    