<svg width="110" height="120" viewBox="0 0 110 120" fill="none" xmlns="http://www.w3.org/2000/svg">
<g clip-path="url(#clip0_2547_1111)">
<mask id="path-1-outside-1_2547_1111" maskUnits="userSpaceOnUse" x="-0.666992" y="12" width="75" height="96" fill="black">
<rect fill="white" x="-0.666992" y="12" width="75" height="96"/>
<path d="M70.562 48.918C69.5855 47.5547 68.6675 46.2696 68.4643 44.8789C68.2729 43.5508 68.8003 42.125 69.3588 40.6172C70.1088 38.5899 70.8822 36.4922 69.9292 34.3984C68.9604 32.3398 66.8433 31.4961 64.7964 30.6836C63.2378 30.0625 61.7691 29.4805 60.8511 28.418C59.9721 27.4063 59.6441 25.9219 59.2964 24.3477C58.8315 22.2383 58.3471 20.0547 56.4175 18.8086C54.4878 17.6016 52.2534 18.0352 50.0894 18.457C48.4449 18.7773 46.8902 19.082 45.5464 18.6836C44.2573 18.3047 43.1791 17.2344 42.0386 16.1016C40.4995 14.5782 38.9136 13.0039 36.6284 13H36.6166C34.3393 13.0273 32.6947 14.6016 31.1049 16.1289C29.894 17.2891 28.7533 18.3828 27.4057 18.7773C26.1205 19.1562 24.6323 18.8359 23.058 18.5C20.9447 18.0468 18.7572 17.582 16.8236 18.8203C14.9213 20.0742 14.39 22.2891 13.8744 24.4297C13.4838 26.0586 13.1127 27.5977 12.1947 28.6602C11.3158 29.6758 9.89393 30.211 8.39003 30.7774C6.36663 31.5391 4.27284 32.3282 3.31584 34.418C2.39396 36.5 3.14395 38.6524 3.87052 40.7305C4.4213 42.3125 4.94473 43.8086 4.74161 45.1953C4.5502 46.5234 3.64392 47.7422 2.68302 49.0351C1.39392 50.7695 0.0580148 52.5624 0.382215 54.8398C0.733775 57.0898 2.52672 58.4921 4.26112 59.8515C5.58142 60.8867 6.82751 61.8593 7.40951 63.1367C7.9681 64.3594 7.86264 65.875 7.75326 67.4765C7.60483 69.6327 7.45248 71.8632 8.95636 73.6054C10.4681 75.3085 12.7337 75.5195 14.9291 75.7265C16.5971 75.8827 18.1713 76.0312 19.3549 76.789C20.4838 77.5155 21.2182 78.8437 21.9916 80.2538C22.4173 81.0272 22.8509 81.8085 23.3627 82.5116V105.934C23.3627 106.187 23.4799 106.422 23.6791 106.578C23.8783 106.734 24.1361 106.789 24.3783 106.727L36.6243 103.691L48.8663 106.727C48.9327 106.742 48.9991 106.75 49.0655 106.75C49.2452 106.75 49.4249 106.691 49.5694 106.574C49.7686 106.418 49.8858 106.18 49.8858 105.93V82.5347C50.4327 81.812 50.9014 80.9995 51.3624 80.1949C52.1984 78.7418 52.9835 77.3707 54.1671 76.609C55.296 75.8824 56.8116 75.7691 58.4171 75.648C60.5733 75.4879 62.8038 75.3199 64.3116 73.5855C65.7843 71.8472 65.6671 69.5738 65.5577 67.3707C65.4757 65.6949 65.3937 64.1168 65.9796 62.8395C66.5382 61.6168 67.7491 60.7028 69.0343 59.734C70.7609 58.4332 72.546 57.0856 72.8781 54.8121C73.1711 52.5621 71.8472 50.7109 70.562 48.918ZM36.82 102.051C36.6911 102.02 36.5544 102.02 36.4255 102.051L24.9995 104.883L25.0034 84.137C25.394 84.3987 25.8276 84.6097 26.3198 84.7542C28.5112 85.3714 30.5346 84.3206 32.4917 83.3089C33.98 82.5394 35.3862 81.8089 36.7886 81.8089C38.1284 81.8089 39.4683 82.5315 40.8824 83.2972C42.3824 84.1097 43.9215 84.9417 45.5894 84.9417C46.0347 84.9417 46.4917 84.8831 46.9566 84.7464C47.4371 84.5979 47.8628 84.387 48.2496 84.1292V104.883L36.82 102.051ZM71.254 54.594C71.0235 56.1917 69.5782 57.2776 68.047 58.4338C66.6564 59.4846 65.2189 60.5666 64.4884 62.1643C63.7384 63.8049 63.8322 65.6604 63.922 67.4573C64.0197 69.4261 64.1134 71.2893 63.0665 72.5237C62.0079 73.7425 60.2032 73.8753 58.2931 74.0198C56.5548 74.1487 54.7579 74.2854 53.2814 75.2346C51.7658 76.2112 50.84 77.8205 49.9416 79.3791C48.9612 81.09 48.0314 82.7033 46.4846 83.1799C44.9338 83.633 43.344 82.7697 41.6604 81.8596C40.1292 81.0315 38.5432 80.1721 36.7893 80.1721C34.9846 80.1721 33.3362 81.0276 31.7385 81.8557C29.9885 82.7619 28.3323 83.6213 26.7737 83.1838C25.2268 82.7268 24.3557 81.1408 23.4299 79.465C22.5901 77.9377 21.719 76.3595 20.2424 75.4103C18.7268 74.4337 16.8752 74.2619 15.0822 74.0939C13.1174 73.9103 11.2619 73.7384 10.1877 72.5275C9.13303 71.3048 9.25804 69.5002 9.38695 67.59C9.50414 65.8517 9.62914 64.0548 8.89867 62.4572C8.14867 60.8166 6.68387 59.672 5.26977 58.5627C3.71507 57.3479 2.25027 56.1994 2.00027 54.5979C1.77371 53.0002 2.85183 51.5471 3.99637 50.012C5.03547 48.6136 6.10967 47.1682 6.35967 45.43C6.61748 43.6448 6.0042 41.8909 5.41436 40.1917C4.76592 38.3284 4.15266 36.5706 4.80889 35.0901C5.48077 33.6253 7.17609 32.9846 8.96909 32.3089C10.598 31.6956 12.2855 31.0589 13.4339 29.7308C14.6136 28.3675 15.0472 26.5589 15.4691 24.8128C15.93 22.8948 16.3636 21.0823 17.7152 20.1917C19.0746 19.3206 20.8441 19.6995 22.7152 20.1019C24.4183 20.4651 26.18 20.844 27.8675 20.3479C29.598 19.8401 30.9417 18.5549 32.2386 17.3088C33.6605 15.9455 35.0042 14.6604 36.6331 14.6369C38.2425 14.6409 39.5276 15.9142 40.8831 17.2658C42.1214 18.4924 43.3987 19.7619 45.0823 20.258C46.8128 20.7659 48.637 20.4104 50.4026 20.0666C52.3362 19.6877 54.1682 19.3323 55.5393 20.1916C56.8948 21.0666 57.2854 22.8322 57.6995 24.7033C58.0745 26.4025 58.4651 28.1642 59.6136 29.4924C60.7933 30.8557 62.5238 31.5432 64.1917 32.2072C66.0237 32.9377 67.7542 33.6252 68.4456 35.09C69.1136 36.5588 68.4886 38.2541 67.8245 40.0509C67.2229 41.6837 66.5979 43.3751 66.8479 45.1134C67.1058 46.8986 68.1877 48.4103 69.2307 49.8712C70.3791 51.4767 71.465 52.9885 71.254 54.594ZM36.625 25.403C23.629 25.403 13.055 35.977 13.055 48.973C13.055 61.969 23.629 72.543 36.625 72.543C49.621 72.543 60.195 61.969 60.195 48.973C60.195 35.977 49.621 25.403 36.625 25.403ZM36.625 70.903C24.531 70.903 14.695 61.0632 14.695 48.973C14.695 36.879 24.5309 27.039 36.625 27.039C48.7191 27.039 58.555 36.8788 58.555 48.969C58.555 61.067 48.7191 70.903 36.625 70.903ZM48.027 44.067H48.0231L42.0817 44.0787H42.0778C41.4294 44.0787 40.8825 43.6803 40.6794 43.0631L38.8552 37.4108C38.5427 36.4382 37.6443 35.7897 36.6247 35.7897C35.6051 35.7897 34.7067 36.4421 34.3942 37.4108L32.57 43.0631C32.3708 43.6803 31.8239 44.0787 31.1716 44.0787H31.1677L25.2263 44.067H25.2224C24.2029 44.067 23.3083 44.7154 22.9958 45.6842C22.6794 46.653 23.0231 47.7076 23.8513 48.3053L28.6638 51.7897C29.1911 52.1725 29.402 52.817 29.1989 53.4342L27.3512 59.0826C27.0348 60.0513 27.3747 61.106 28.2028 61.7076C29.027 62.3092 30.1364 62.3053 30.9606 61.7037L35.4997 58.3912C36.1833 57.8912 37.0661 57.8912 37.7497 58.3912L42.2888 61.7037C42.7028 62.0045 43.1872 62.1568 43.6716 62.1568C44.152 62.1568 44.6364 62.0084 45.0505 61.7076C45.8747 61.106 46.2185 60.0553 45.902 59.0826L44.0543 53.4342C43.8512 52.817 44.0621 52.1725 44.5895 51.7897L49.402 48.3053C50.2301 47.7076 50.5739 46.653 50.2575 45.6842C49.9411 44.7194 49.0427 44.067 48.027 44.067ZM48.4372 46.9811L43.6247 50.4655C42.5114 51.2702 42.0661 52.6374 42.4919 53.946L44.3396 59.5944C44.4372 59.8952 44.3396 60.1999 44.0818 60.3835C43.824 60.571 43.5075 60.5671 43.2497 60.3835L38.7106 57.071C38.0778 56.61 37.3473 56.3756 36.6208 56.3756C35.8943 56.3756 35.1638 56.6061 34.531 57.071L29.9919 60.3835C29.7341 60.571 29.4177 60.571 29.1599 60.3835C28.9021 60.196 28.8044 59.8952 28.9021 59.5944L30.7498 53.946C31.1795 52.6374 30.7342 51.2702 29.617 50.4655L24.8045 46.9811C24.5467 46.7975 24.449 46.4928 24.5467 46.192C24.6443 45.8913 24.9061 45.7077 25.2186 45.7038L31.16 45.7155H31.1678C32.5428 45.7155 33.703 44.8717 34.1248 43.5632L35.949 37.9109C36.0466 37.6101 36.3044 37.4226 36.6209 37.4226C36.9373 37.4226 37.1951 37.6101 37.2927 37.9109L39.1169 43.5632C39.5388 44.8718 40.7028 45.7155 42.0778 45.7155L48.0192 45.7038H48.0231C48.3396 45.7038 48.5974 45.8913 48.695 46.192C48.7927 46.4928 48.695 46.7975 48.4372 46.9811Z"/>
</mask>
<path d="M70.562 48.918C69.5855 47.5547 68.6675 46.2696 68.4643 44.8789C68.2729 43.5508 68.8003 42.125 69.3588 40.6172C70.1088 38.5899 70.8822 36.4922 69.9292 34.3984C68.9604 32.3398 66.8433 31.4961 64.7964 30.6836C63.2378 30.0625 61.7691 29.4805 60.8511 28.418C59.9721 27.4063 59.6441 25.9219 59.2964 24.3477C58.8315 22.2383 58.3471 20.0547 56.4175 18.8086C54.4878 17.6016 52.2534 18.0352 50.0894 18.457C48.4449 18.7773 46.8902 19.082 45.5464 18.6836C44.2573 18.3047 43.1791 17.2344 42.0386 16.1016C40.4995 14.5782 38.9136 13.0039 36.6284 13H36.6166C34.3393 13.0273 32.6947 14.6016 31.1049 16.1289C29.894 17.2891 28.7533 18.3828 27.4057 18.7773C26.1205 19.1562 24.6323 18.8359 23.058 18.5C20.9447 18.0468 18.7572 17.582 16.8236 18.8203C14.9213 20.0742 14.39 22.2891 13.8744 24.4297C13.4838 26.0586 13.1127 27.5977 12.1947 28.6602C11.3158 29.6758 9.89393 30.211 8.39003 30.7774C6.36663 31.5391 4.27284 32.3282 3.31584 34.418C2.39396 36.5 3.14395 38.6524 3.87052 40.7305C4.4213 42.3125 4.94473 43.8086 4.74161 45.1953C4.5502 46.5234 3.64392 47.7422 2.68302 49.0351C1.39392 50.7695 0.0580148 52.5624 0.382215 54.8398C0.733775 57.0898 2.52672 58.4921 4.26112 59.8515C5.58142 60.8867 6.82751 61.8593 7.40951 63.1367C7.9681 64.3594 7.86264 65.875 7.75326 67.4765C7.60483 69.6327 7.45248 71.8632 8.95636 73.6054C10.4681 75.3085 12.7337 75.5195 14.9291 75.7265C16.5971 75.8827 18.1713 76.0312 19.3549 76.789C20.4838 77.5155 21.2182 78.8437 21.9916 80.2538C22.4173 81.0272 22.8509 81.8085 23.3627 82.5116V105.934C23.3627 106.187 23.4799 106.422 23.6791 106.578C23.8783 106.734 24.1361 106.789 24.3783 106.727L36.6243 103.691L48.8663 106.727C48.9327 106.742 48.9991 106.75 49.0655 106.75C49.2452 106.75 49.4249 106.691 49.5694 106.574C49.7686 106.418 49.8858 106.18 49.8858 105.93V82.5347C50.4327 81.812 50.9014 80.9995 51.3624 80.1949C52.1984 78.7418 52.9835 77.3707 54.1671 76.609C55.296 75.8824 56.8116 75.7691 58.4171 75.648C60.5733 75.4879 62.8038 75.3199 64.3116 73.5855C65.7843 71.8472 65.6671 69.5738 65.5577 67.3707C65.4757 65.6949 65.3937 64.1168 65.9796 62.8395C66.5382 61.6168 67.7491 60.7028 69.0343 59.734C70.7609 58.4332 72.546 57.0856 72.8781 54.8121C73.1711 52.5621 71.8472 50.7109 70.562 48.918ZM36.82 102.051C36.6911 102.02 36.5544 102.02 36.4255 102.051L24.9995 104.883L25.0034 84.137C25.394 84.3987 25.8276 84.6097 26.3198 84.7542C28.5112 85.3714 30.5346 84.3206 32.4917 83.3089C33.98 82.5394 35.3862 81.8089 36.7886 81.8089C38.1284 81.8089 39.4683 82.5315 40.8824 83.2972C42.3824 84.1097 43.9215 84.9417 45.5894 84.9417C46.0347 84.9417 46.4917 84.8831 46.9566 84.7464C47.4371 84.5979 47.8628 84.387 48.2496 84.1292V104.883L36.82 102.051ZM71.254 54.594C71.0235 56.1917 69.5782 57.2776 68.047 58.4338C66.6564 59.4846 65.2189 60.5666 64.4884 62.1643C63.7384 63.8049 63.8322 65.6604 63.922 67.4573C64.0197 69.4261 64.1134 71.2893 63.0665 72.5237C62.0079 73.7425 60.2032 73.8753 58.2931 74.0198C56.5548 74.1487 54.7579 74.2854 53.2814 75.2346C51.7658 76.2112 50.84 77.8205 49.9416 79.3791C48.9612 81.09 48.0314 82.7033 46.4846 83.1799C44.9338 83.633 43.344 82.7697 41.6604 81.8596C40.1292 81.0315 38.5432 80.1721 36.7893 80.1721C34.9846 80.1721 33.3362 81.0276 31.7385 81.8557C29.9885 82.7619 28.3323 83.6213 26.7737 83.1838C25.2268 82.7268 24.3557 81.1408 23.4299 79.465C22.5901 77.9377 21.719 76.3595 20.2424 75.4103C18.7268 74.4337 16.8752 74.2619 15.0822 74.0939C13.1174 73.9103 11.2619 73.7384 10.1877 72.5275C9.13303 71.3048 9.25804 69.5002 9.38695 67.59C9.50414 65.8517 9.62914 64.0548 8.89867 62.4572C8.14867 60.8166 6.68387 59.672 5.26977 58.5627C3.71507 57.3479 2.25027 56.1994 2.00027 54.5979C1.77371 53.0002 2.85183 51.5471 3.99637 50.012C5.03547 48.6136 6.10967 47.1682 6.35967 45.43C6.61748 43.6448 6.0042 41.8909 5.41436 40.1917C4.76592 38.3284 4.15266 36.5706 4.80889 35.0901C5.48077 33.6253 7.17609 32.9846 8.96909 32.3089C10.598 31.6956 12.2855 31.0589 13.4339 29.7308C14.6136 28.3675 15.0472 26.5589 15.4691 24.8128C15.93 22.8948 16.3636 21.0823 17.7152 20.1917C19.0746 19.3206 20.8441 19.6995 22.7152 20.1019C24.4183 20.4651 26.18 20.844 27.8675 20.3479C29.598 19.8401 30.9417 18.5549 32.2386 17.3088C33.6605 15.9455 35.0042 14.6604 36.6331 14.6369C38.2425 14.6409 39.5276 15.9142 40.8831 17.2658C42.1214 18.4924 43.3987 19.7619 45.0823 20.258C46.8128 20.7659 48.637 20.4104 50.4026 20.0666C52.3362 19.6877 54.1682 19.3323 55.5393 20.1916C56.8948 21.0666 57.2854 22.8322 57.6995 24.7033C58.0745 26.4025 58.4651 28.1642 59.6136 29.4924C60.7933 30.8557 62.5238 31.5432 64.1917 32.2072C66.0237 32.9377 67.7542 33.6252 68.4456 35.09C69.1136 36.5588 68.4886 38.2541 67.8245 40.0509C67.2229 41.6837 66.5979 43.3751 66.8479 45.1134C67.1058 46.8986 68.1877 48.4103 69.2307 49.8712C70.3791 51.4767 71.465 52.9885 71.254 54.594ZM36.625 25.403C23.629 25.403 13.055 35.977 13.055 48.973C13.055 61.969 23.629 72.543 36.625 72.543C49.621 72.543 60.195 61.969 60.195 48.973C60.195 35.977 49.621 25.403 36.625 25.403ZM36.625 70.903C24.531 70.903 14.695 61.0632 14.695 48.973C14.695 36.879 24.5309 27.039 36.625 27.039C48.7191 27.039 58.555 36.8788 58.555 48.969C58.555 61.067 48.7191 70.903 36.625 70.903ZM48.027 44.067H48.0231L42.0817 44.0787H42.0778C41.4294 44.0787 40.8825 43.6803 40.6794 43.0631L38.8552 37.4108C38.5427 36.4382 37.6443 35.7897 36.6247 35.7897C35.6051 35.7897 34.7067 36.4421 34.3942 37.4108L32.57 43.0631C32.3708 43.6803 31.8239 44.0787 31.1716 44.0787H31.1677L25.2263 44.067H25.2224C24.2029 44.067 23.3083 44.7154 22.9958 45.6842C22.6794 46.653 23.0231 47.7076 23.8513 48.3053L28.6638 51.7897C29.1911 52.1725 29.402 52.817 29.1989 53.4342L27.3512 59.0826C27.0348 60.0513 27.3747 61.106 28.2028 61.7076C29.027 62.3092 30.1364 62.3053 30.9606 61.7037L35.4997 58.3912C36.1833 57.8912 37.0661 57.8912 37.7497 58.3912L42.2888 61.7037C42.7028 62.0045 43.1872 62.1568 43.6716 62.1568C44.152 62.1568 44.6364 62.0084 45.0505 61.7076C45.8747 61.106 46.2185 60.0553 45.902 59.0826L44.0543 53.4342C43.8512 52.817 44.0621 52.1725 44.5895 51.7897L49.402 48.3053C50.2301 47.7076 50.5739 46.653 50.2575 45.6842C49.9411 44.7194 49.0427 44.067 48.027 44.067ZM48.4372 46.9811L43.6247 50.4655C42.5114 51.2702 42.0661 52.6374 42.4919 53.946L44.3396 59.5944C44.4372 59.8952 44.3396 60.1999 44.0818 60.3835C43.824 60.571 43.5075 60.5671 43.2497 60.3835L38.7106 57.071C38.0778 56.61 37.3473 56.3756 36.6208 56.3756C35.8943 56.3756 35.1638 56.6061 34.531 57.071L29.9919 60.3835C29.7341 60.571 29.4177 60.571 29.1599 60.3835C28.9021 60.196 28.8044 59.8952 28.9021 59.5944L30.7498 53.946C31.1795 52.6374 30.7342 51.2702 29.617 50.4655L24.8045 46.9811C24.5467 46.7975 24.449 46.4928 24.5467 46.192C24.6443 45.8913 24.9061 45.7077 25.2186 45.7038L31.16 45.7155H31.1678C32.5428 45.7155 33.703 44.8717 34.1248 43.5632L35.949 37.9109C36.0466 37.6101 36.3044 37.4226 36.6209 37.4226C36.9373 37.4226 37.1951 37.6101 37.2927 37.9109L39.1169 43.5632C39.5388 44.8718 40.7028 45.7155 42.0778 45.7155L48.0192 45.7038H48.0231C48.3396 45.7038 48.5974 45.8913 48.695 46.192C48.7927 46.4928 48.695 46.7975 48.4372 46.9811Z" fill="black"/>
<path d="M70.562 48.918C69.5855 47.5547 68.6675 46.2696 68.4643 44.8789C68.2729 43.5508 68.8003 42.125 69.3588 40.6172C70.1088 38.5899 70.8822 36.4922 69.9292 34.3984C68.9604 32.3398 66.8433 31.4961 64.7964 30.6836C63.2378 30.0625 61.7691 29.4805 60.8511 28.418C59.9721 27.4063 59.6441 25.9219 59.2964 24.3477C58.8315 22.2383 58.3471 20.0547 56.4175 18.8086C54.4878 17.6016 52.2534 18.0352 50.0894 18.457C48.4449 18.7773 46.8902 19.082 45.5464 18.6836C44.2573 18.3047 43.1791 17.2344 42.0386 16.1016C40.4995 14.5782 38.9136 13.0039 36.6284 13H36.6166C34.3393 13.0273 32.6947 14.6016 31.1049 16.1289C29.894 17.2891 28.7533 18.3828 27.4057 18.7773C26.1205 19.1562 24.6323 18.8359 23.058 18.5C20.9447 18.0468 18.7572 17.582 16.8236 18.8203C14.9213 20.0742 14.39 22.2891 13.8744 24.4297C13.4838 26.0586 13.1127 27.5977 12.1947 28.6602C11.3158 29.6758 9.89393 30.211 8.39003 30.7774C6.36663 31.5391 4.27284 32.3282 3.31584 34.418C2.39396 36.5 3.14395 38.6524 3.87052 40.7305C4.4213 42.3125 4.94473 43.8086 4.74161 45.1953C4.5502 46.5234 3.64392 47.7422 2.68302 49.0351C1.39392 50.7695 0.0580148 52.5624 0.382215 54.8398C0.733775 57.0898 2.52672 58.4921 4.26112 59.8515C5.58142 60.8867 6.82751 61.8593 7.40951 63.1367C7.9681 64.3594 7.86264 65.875 7.75326 67.4765C7.60483 69.6327 7.45248 71.8632 8.95636 73.6054C10.4681 75.3085 12.7337 75.5195 14.9291 75.7265C16.5971 75.8827 18.1713 76.0312 19.3549 76.789C20.4838 77.5155 21.2182 78.8437 21.9916 80.2538C22.4173 81.0272 22.8509 81.8085 23.3627 82.5116V105.934C23.3627 106.187 23.4799 106.422 23.6791 106.578C23.8783 106.734 24.1361 106.789 24.3783 106.727L36.6243 103.691L48.8663 106.727C48.9327 106.742 48.9991 106.75 49.0655 106.75C49.2452 106.75 49.4249 106.691 49.5694 106.574C49.7686 106.418 49.8858 106.18 49.8858 105.93V82.5347C50.4327 81.812 50.9014 80.9995 51.3624 80.1949C52.1984 78.7418 52.9835 77.3707 54.1671 76.609C55.296 75.8824 56.8116 75.7691 58.4171 75.648C60.5733 75.4879 62.8038 75.3199 64.3116 73.5855C65.7843 71.8472 65.6671 69.5738 65.5577 67.3707C65.4757 65.6949 65.3937 64.1168 65.9796 62.8395C66.5382 61.6168 67.7491 60.7028 69.0343 59.734C70.7609 58.4332 72.546 57.0856 72.8781 54.8121C73.1711 52.5621 71.8472 50.7109 70.562 48.918ZM36.82 102.051C36.6911 102.02 36.5544 102.02 36.4255 102.051L24.9995 104.883L25.0034 84.137C25.394 84.3987 25.8276 84.6097 26.3198 84.7542C28.5112 85.3714 30.5346 84.3206 32.4917 83.3089C33.98 82.5394 35.3862 81.8089 36.7886 81.8089C38.1284 81.8089 39.4683 82.5315 40.8824 83.2972C42.3824 84.1097 43.9215 84.9417 45.5894 84.9417C46.0347 84.9417 46.4917 84.8831 46.9566 84.7464C47.4371 84.5979 47.8628 84.387 48.2496 84.1292V104.883L36.82 102.051ZM71.254 54.594C71.0235 56.1917 69.5782 57.2776 68.047 58.4338C66.6564 59.4846 65.2189 60.5666 64.4884 62.1643C63.7384 63.8049 63.8322 65.6604 63.922 67.4573C64.0197 69.4261 64.1134 71.2893 63.0665 72.5237C62.0079 73.7425 60.2032 73.8753 58.2931 74.0198C56.5548 74.1487 54.7579 74.2854 53.2814 75.2346C51.7658 76.2112 50.84 77.8205 49.9416 79.3791C48.9612 81.09 48.0314 82.7033 46.4846 83.1799C44.9338 83.633 43.344 82.7697 41.6604 81.8596C40.1292 81.0315 38.5432 80.1721 36.7893 80.1721C34.9846 80.1721 33.3362 81.0276 31.7385 81.8557C29.9885 82.7619 28.3323 83.6213 26.7737 83.1838C25.2268 82.7268 24.3557 81.1408 23.4299 79.465C22.5901 77.9377 21.719 76.3595 20.2424 75.4103C18.7268 74.4337 16.8752 74.2619 15.0822 74.0939C13.1174 73.9103 11.2619 73.7384 10.1877 72.5275C9.13303 71.3048 9.25804 69.5002 9.38695 67.59C9.50414 65.8517 9.62914 64.0548 8.89867 62.4572C8.14867 60.8166 6.68387 59.672 5.26977 58.5627C3.71507 57.3479 2.25027 56.1994 2.00027 54.5979C1.77371 53.0002 2.85183 51.5471 3.99637 50.012C5.03547 48.6136 6.10967 47.1682 6.35967 45.43C6.61748 43.6448 6.0042 41.8909 5.41436 40.1917C4.76592 38.3284 4.15266 36.5706 4.80889 35.0901C5.48077 33.6253 7.17609 32.9846 8.96909 32.3089C10.598 31.6956 12.2855 31.0589 13.4339 29.7308C14.6136 28.3675 15.0472 26.5589 15.4691 24.8128C15.93 22.8948 16.3636 21.0823 17.7152 20.1917C19.0746 19.3206 20.8441 19.6995 22.7152 20.1019C24.4183 20.4651 26.18 20.844 27.8675 20.3479C29.598 19.8401 30.9417 18.5549 32.2386 17.3088C33.6605 15.9455 35.0042 14.6604 36.6331 14.6369C38.2425 14.6409 39.5276 15.9142 40.8831 17.2658C42.1214 18.4924 43.3987 19.7619 45.0823 20.258C46.8128 20.7659 48.637 20.4104 50.4026 20.0666C52.3362 19.6877 54.1682 19.3323 55.5393 20.1916C56.8948 21.0666 57.2854 22.8322 57.6995 24.7033C58.0745 26.4025 58.4651 28.1642 59.6136 29.4924C60.7933 30.8557 62.5238 31.5432 64.1917 32.2072C66.0237 32.9377 67.7542 33.6252 68.4456 35.09C69.1136 36.5588 68.4886 38.2541 67.8245 40.0509C67.2229 41.6837 66.5979 43.3751 66.8479 45.1134C67.1058 46.8986 68.1877 48.4103 69.2307 49.8712C70.3791 51.4767 71.465 52.9885 71.254 54.594ZM36.625 25.403C23.629 25.403 13.055 35.977 13.055 48.973C13.055 61.969 23.629 72.543 36.625 72.543C49.621 72.543 60.195 61.969 60.195 48.973C60.195 35.977 49.621 25.403 36.625 25.403ZM36.625 70.903C24.531 70.903 14.695 61.0632 14.695 48.973C14.695 36.879 24.5309 27.039 36.625 27.039C48.7191 27.039 58.555 36.8788 58.555 48.969C58.555 61.067 48.7191 70.903 36.625 70.903ZM48.027 44.067H48.0231L42.0817 44.0787H42.0778C41.4294 44.0787 40.8825 43.6803 40.6794 43.0631L38.8552 37.4108C38.5427 36.4382 37.6443 35.7897 36.6247 35.7897C35.6051 35.7897 34.7067 36.4421 34.3942 37.4108L32.57 43.0631C32.3708 43.6803 31.8239 44.0787 31.1716 44.0787H31.1677L25.2263 44.067H25.2224C24.2029 44.067 23.3083 44.7154 22.9958 45.6842C22.6794 46.653 23.0231 47.7076 23.8513 48.3053L28.6638 51.7897C29.1911 52.1725 29.402 52.817 29.1989 53.4342L27.3512 59.0826C27.0348 60.0513 27.3747 61.106 28.2028 61.7076C29.027 62.3092 30.1364 62.3053 30.9606 61.7037L35.4997 58.3912C36.1833 57.8912 37.0661 57.8912 37.7497 58.3912L42.2888 61.7037C42.7028 62.0045 43.1872 62.1568 43.6716 62.1568C44.152 62.1568 44.6364 62.0084 45.0505 61.7076C45.8747 61.106 46.2185 60.0553 45.902 59.0826L44.0543 53.4342C43.8512 52.817 44.0621 52.1725 44.5895 51.7897L49.402 48.3053C50.2301 47.7076 50.5739 46.653 50.2575 45.6842C49.9411 44.7194 49.0427 44.067 48.027 44.067ZM48.4372 46.9811L43.6247 50.4655C42.5114 51.2702 42.0661 52.6374 42.4919 53.946L44.3396 59.5944C44.4372 59.8952 44.3396 60.1999 44.0818 60.3835C43.824 60.571 43.5075 60.5671 43.2497 60.3835L38.7106 57.071C38.0778 56.61 37.3473 56.3756 36.6208 56.3756C35.8943 56.3756 35.1638 56.6061 34.531 57.071L29.9919 60.3835C29.7341 60.571 29.4177 60.571 29.1599 60.3835C28.9021 60.196 28.8044 59.8952 28.9021 59.5944L30.7498 53.946C31.1795 52.6374 30.7342 51.2702 29.617 50.4655L24.8045 46.9811C24.5467 46.7975 24.449 46.4928 24.5467 46.192C24.6443 45.8913 24.9061 45.7077 25.2186 45.7038L31.16 45.7155H31.1678C32.5428 45.7155 33.703 44.8717 34.1248 43.5632L35.949 37.9109C36.0466 37.6101 36.3044 37.4226 36.6209 37.4226C36.9373 37.4226 37.1951 37.6101 37.2927 37.9109L39.1169 43.5632C39.5388 44.8718 40.7028 45.7155 42.0778 45.7155L48.0192 45.7038H48.0231C48.3396 45.7038 48.5974 45.8913 48.695 46.192C48.7927 46.4928 48.695 46.7975 48.4372 46.9811Z" stroke="black" mask="url(#path-1-outside-1_2547_1111)"/>
</g>
<defs>
<clipPath id="clip0_2547_1111">
<rect width="110" height="120" fill="white"/>
</clipPath>
</defs>
</svg>
