<svg width="110" height="120" viewBox="0 0 110 120" fill="none" xmlns="http://www.w3.org/2000/svg">
<path fill-rule="evenodd" clip-rule="evenodd" d="M45.0377 87.8345C44.5455 87.5522 44.3754 86.926 44.6577 86.4374C44.94 85.9452 45.5661 85.7751 46.0547 86.0574L50.3943 88.5547H50.3979C51.4295 88.6597 52.3849 87.9901 52.642 86.9803C52.8953 85.9742 52.3741 84.9282 51.415 84.5301C51.3788 84.512 51.339 84.4939 51.3028 84.4758L34.661 75.0148C34.585 74.9677 34.5018 74.9424 34.4149 74.9351C34.328 74.9315 34.2412 74.946 34.1579 74.9822C32.7392 75.6916 31.4362 76.6145 30.2997 77.722C26.7998 80.7695 23.488 83.6505 18.0192 77.6351C17.6536 77.2334 17.4871 76.6869 17.5631 76.1476C17.6391 75.6083 17.954 75.1341 18.4209 74.8483C19.8506 74.1208 21.1354 73.1327 22.2067 71.9383C22.9414 70.7548 23.4011 69.4156 23.5458 68.0294C22.9631 67.9932 22.384 68.004 21.8049 68.0692C20.5165 68.2502 19.2062 68.138 17.9685 67.7471L9.4666 80.8235C10.4945 81.9781 11.3595 83.2665 12.0435 84.6564C12.3548 85.2282 12.6624 85.8001 13.0099 86.3502L13.9691 84.9748H13.9655C14.0379 84.8699 14.1283 84.783 14.2333 84.7106C14.8703 84.1931 15.652 83.8854 16.4701 83.8347C17.1903 83.7913 17.9106 83.9252 18.5693 84.222C19.2244 84.5188 19.8071 84.9567 20.274 85.5033C20.5888 85.876 20.8458 86.2923 21.0304 86.7446C21.2186 86.694 21.4104 86.6542 21.6023 86.6324C22.4311 86.5311 23.2744 86.6723 24.0272 87.045C24.7873 87.4215 25.4351 87.9933 25.8984 88.7027C26.1228 89.0393 26.3038 89.3977 26.4413 89.7777C27.0421 89.709 27.6538 89.7813 28.2221 89.9913C29.2644 90.3641 30.1475 91.0807 30.7338 92.0217C31.0704 92.561 31.2731 93.1727 31.3274 93.8061C32.0513 93.7844 32.7679 93.9436 33.4158 94.2657C33.8718 94.501 34.2808 94.8231 34.6138 95.2176C34.9432 95.6085 35.1929 96.0645 35.3413 96.5531C35.667 97.6787 35.5331 98.8839 34.9721 99.9119C34.9432 99.9698 34.907 100.024 34.8672 100.075L34.7622 100.227L38.1897 102.178V102.174C39.0403 102.395 39.9415 102.199 40.6255 101.649C41.306 101.103 41.6896 100.259 41.6571 99.3835L37.5455 97.0779H37.5419C37.0496 96.8029 36.8723 96.1767 37.151 95.6809C37.426 95.185 38.0522 95.0113 38.548 95.2864L43.0361 97.7982V97.8018C43.8106 98.0334 44.6539 97.8416 45.2511 97.2951C45.8482 96.7485 46.1125 95.9233 45.946 95.1307L41.2915 92.4343L41.2952 92.4379C40.8029 92.152 40.6364 91.5258 40.9188 91.0336C41.2047 90.545 41.8308 90.3749 42.323 90.6608L47.2201 93.502C48.0561 93.7373 48.9465 93.4115 49.4351 92.6949C49.9237 91.9783 49.902 91.03 49.3808 90.3387L45.034 87.8413L45.0377 87.8345ZM55.8886 68.3371C56.9925 68.3371 57.9444 69.1152 58.1615 70.1974C58.3823 71.2796 57.8032 72.3653 56.7861 72.7889C55.7654 73.2123 54.5892 72.8612 53.9738 71.9456C53.3586 71.0262 53.4744 69.8029 54.2525 69.0212C54.6869 68.5832 55.2733 68.3407 55.8886 68.3371ZM56.0731 70.4725C55.9971 70.3965 55.8886 70.3748 55.7908 70.4146C55.6931 70.4544 55.6316 70.5485 55.6316 70.6535C55.6316 70.7222 55.6605 70.7874 55.7076 70.8344C55.8089 70.9358 55.9718 70.9358 56.0731 70.8344C56.1202 70.7874 56.1455 70.7222 56.1455 70.6535C56.1455 70.5847 56.1202 70.5195 56.0731 70.4725ZM9.78545 69.155C10.9328 69.155 11.9173 69.9658 12.1417 71.0913C12.3661 72.2133 11.7616 73.339 10.7048 73.7768C9.64434 74.2148 8.42462 73.8456 7.78762 72.8937C7.15061 71.9419 7.27729 70.6715 8.08802 69.8608C8.53683 69.4083 9.14844 69.155 9.78545 69.155ZM10.0316 71.3121V71.3157C10.1148 71.3954 10.151 71.5148 10.1293 71.627C10.1039 71.7428 10.0279 71.8369 9.91936 71.8804C9.8144 71.9274 9.69135 71.9129 9.59363 71.8478C9.4959 71.7863 9.43799 71.6777 9.44162 71.5582C9.438 71.4678 9.47781 71.3809 9.54296 71.3157C9.60811 71.2506 9.69497 71.2108 9.78546 71.2144C9.87956 71.2108 9.96642 71.247 10.0316 71.3121ZM19.2247 38.8754C20.1187 37.406 21.3529 36.1681 22.8223 35.2669C24.4945 34.2426 26.42 33.6997 28.3817 33.6997H35.6638C37.6255 33.6997 39.5474 34.2426 41.2231 35.2669C42.6925 36.1681 43.9268 37.406 44.8207 38.8754C45.2152 38.8319 45.6134 38.8102 46.0078 38.8102H53.29C59.2004 38.8283 63.9852 43.6131 64 49.523V56.2912C64 57.8041 62.7731 59.031 61.2602 59.0346H38.0389C36.5224 59.0346 35.2955 57.8077 35.2919 56.2912V53.9278H28.7445V56.2912C28.7445 57.8041 27.5176 59.031 26.0011 59.0346H2.7798C1.26693 59.0346 0.0399883 57.8077 0.0399883 56.2912V49.523C0.0544657 43.6126 4.84287 38.8241 10.75 38.8102H18.0322C18.4303 38.8102 18.8284 38.8319 19.223 38.8754H19.2247ZM42.6711 39.3459C41.9943 38.4121 41.1402 37.6231 40.1557 37.0223C38.8021 36.1934 37.2458 35.7591 35.6605 35.7627H28.3783C26.7931 35.7627 25.2404 36.197 23.8867 37.0259C22.9058 37.6267 22.048 38.4157 21.3713 39.3495C25.7616 40.8081 28.7294 44.9016 28.7438 49.5268V51.872H35.2912V49.523C35.3093 44.8975 38.2772 40.8004 42.6674 39.3458L42.6711 39.3459ZM32.0195 17.8184C35.704 17.8184 38.8745 20.4207 39.5948 24.0364C40.3114 27.6484 38.3787 31.2678 34.9729 32.6757C31.567 34.0872 27.6437 32.8965 25.5952 29.8309C23.5503 26.769 23.9521 22.6828 26.558 20.0808C28.0058 18.6295 29.971 17.8147 32.0195 17.8184ZM36.0261 21.5318C34.1151 19.6208 31.1182 19.324 28.8706 20.826C26.6194 22.3281 25.7435 25.2091 26.7786 27.7064C27.8138 30.2037 30.4668 31.6262 33.1198 31.0978C35.7728 30.5694 37.6838 28.2421 37.6838 25.5385C37.6874 24.0364 37.0902 22.5958 36.0261 21.5318ZM57.2136 50.555C57.2063 50.2763 57.3113 50.0049 57.5031 49.8058C57.6986 49.6068 57.9664 49.4946 58.2451 49.4946C58.5238 49.4946 58.788 49.6068 58.9834 49.8058C59.1753 50.0049 59.2802 50.2763 59.273 50.555V56.9794H61.26C61.6364 56.9758 61.9404 56.6717 61.944 56.2953V49.5271C61.9295 44.7496 58.0605 40.8842 53.2865 40.8696H46.008C41.2341 40.8877 37.365 44.7532 37.3504 49.5271V56.2953C37.3541 56.6717 37.6581 56.9758 38.0309 56.9794H40.0179V50.555C40.0106 50.2763 40.1156 50.0049 40.3074 49.8058C40.5029 49.6068 40.7671 49.4946 41.0458 49.4946C41.3245 49.4946 41.5923 49.6068 41.7841 49.8058C41.9796 50.0049 42.0845 50.2763 42.0737 50.555V56.9794H57.2135L57.2136 50.555ZM49.6491 22.9252C45.9646 22.9252 42.7905 25.5312 42.0738 29.1432C41.3535 32.7553 43.2863 36.3747 46.6921 37.7862C50.0943 39.1977 54.0213 38.007 56.0697 34.9414C58.1146 31.8794 57.7129 27.7969 55.1106 25.1913C53.6628 23.74 51.6976 22.9252 49.6491 22.9252ZM53.6521 26.6423C51.7411 24.7313 48.7478 24.4345 46.5002 25.9365C44.2526 27.4386 43.3767 30.316 44.4118 32.8133C45.4434 35.3142 48.0964 36.7331 50.7493 36.2047C53.3987 35.6799 55.3097 33.3526 55.3097 30.649C55.3133 29.1469 54.7162 27.7063 53.6521 26.6423ZM21.9538 50.5557C21.9466 50.277 22.0515 50.0055 22.2433 49.8065C22.4388 49.6074 22.7066 49.4952 22.9853 49.4952C23.2604 49.4952 23.5282 49.6074 23.7237 49.8065C23.9155 50.0055 24.0204 50.277 24.0132 50.5557V56.98H26.0002C26.373 56.9764 26.677 56.6724 26.6806 56.296V49.5278C26.6698 44.7503 22.8007 40.8848 18.0231 40.8703H10.7482C5.97431 40.8847 2.10882 44.7538 2.09437 49.5278V56.296C2.09799 56.6724 2.40201 56.9764 2.77481 56.98H4.7618V50.5557C4.7618 49.9874 5.22146 49.5278 5.78972 49.5278C6.35796 49.5278 6.82125 49.9874 6.82125 50.5557V56.98H21.9537L21.9538 50.5557ZM14.3893 22.9259C10.7048 22.9259 7.53432 25.5318 6.81401 29.1439C6.09738 32.756 8.03011 36.3754 11.4359 37.7869C14.8381 39.1984 18.7652 38.0076 20.8136 34.9421C22.8585 31.8801 22.4567 27.7975 19.8508 25.192C18.4067 23.7406 16.4415 22.9259 14.3893 22.9259ZM18.3959 26.6429C16.4849 24.7319 13.4881 24.4352 11.2404 25.9372C8.9928 27.4392 8.11693 30.3202 9.15208 32.8176C10.1836 35.3149 12.8402 36.7373 15.4932 36.2089C18.1426 35.6805 20.0536 33.3569 20.0536 30.6496C20.0572 29.1476 19.46 27.707 18.3959 26.6429ZM8.30484 82.6086L8.27588 82.652C8.04787 83.0103 7.68231 83.26 7.26612 83.3469C6.8499 83.4374 6.41558 83.3541 6.06087 83.1225L0.798325 79.7022C0.736796 79.666 0.67527 79.6262 0.620974 79.5792C0.00206443 79.1014 -0.1789 78.2473 0.190275 77.5596C0.222849 77.4944 0.259043 77.4293 0.302471 77.3714L11.2979 60.4692C11.5259 60.1109 11.8914 59.8612 12.3076 59.7743C12.7202 59.6838 13.1546 59.767 13.5129 59.9987L18.8442 63.4624C19.1989 63.6941 19.4486 64.056 19.5355 64.4722C19.626 64.8884 19.5427 65.3227 19.3111 65.6774L19.141 65.938H19.1446C19.9662 66.0973 20.8131 66.1226 21.6419 66.0177C22.6771 65.8837 23.723 65.9236 24.7437 66.1335C26.4195 65.0042 28.345 64.3021 30.3537 64.0922C32.6014 63.8605 34.8743 64.0705 37.0423 64.7075C38.9497 65.1418 40.9042 65.3191 42.855 65.2395C44.6103 65.1128 46.3332 64.7075 47.9582 64.0379C47.7845 63.6506 47.77 63.2127 47.922 62.8182C48.0704 62.42 48.3708 62.0979 48.7581 61.9242L54.017 59.5391L54.0207 59.5354C54.8278 59.1735 55.776 59.5318 56.1416 60.3353L63.8219 77.2634C63.9956 77.6507 64.0065 78.0886 63.8581 78.4831C63.7097 78.8813 63.4057 79.2034 63.0184 79.3807L57.7595 81.7695C57.3722 81.9432 56.9343 81.9577 56.5398 81.8057C56.3009 81.7152 56.0874 81.5704 55.9136 81.3822C55.2839 81.7043 54.7338 82.1567 54.2958 82.7141C54.0569 82.9928 53.7999 83.2606 53.5321 83.514C54.5853 84.56 55.0015 86.0873 54.6251 87.5206C54.2451 88.9575 53.1303 90.0795 51.7008 90.4704C51.7731 90.7346 51.8166 91.0024 51.8383 91.2775C51.9614 93.1089 50.843 94.7991 49.1057 95.3999C48.7655 95.5193 48.4108 95.5917 48.0489 95.6171C48.0489 96.7716 47.5856 97.8792 46.7676 98.6899C45.9497 99.5042 44.8422 99.9603 43.6876 99.9567C43.655 100.308 43.5826 100.655 43.4704 100.992C42.6561 103.486 39.9995 104.868 37.4913 104.104C37.4189 104.083 37.3501 104.054 37.2814 104.014L33.5752 101.904L31.7547 104.477V104.481C31.6859 104.579 31.6027 104.662 31.5049 104.731C30.8933 105.169 30.1839 105.451 29.4383 105.556C28.6854 105.657 27.9182 105.538 27.2269 105.216C26.5609 104.893 25.9891 104.405 25.5692 103.793C25.3846 103.529 25.229 103.243 25.1059 102.946C24.8706 103.015 24.6281 103.069 24.3856 103.098C23.5604 103.2 22.728 103.048 21.9897 102.668C21.2622 102.291 20.6469 101.734 20.1981 101.05C19.9701 100.699 19.7819 100.319 19.6443 99.9241C19.4091 99.9748 19.1738 100.007 18.9349 100.022C18.0772 100.076 17.2157 99.8843 16.4593 99.4717C15.6775 99.041 15.0514 98.3786 14.6677 97.5751C14.5627 97.3616 14.4795 97.1408 14.4107 96.9128C13.6869 96.996 12.9522 96.8694 12.2971 96.5509C11.8121 96.3156 11.3778 95.9935 11.0086 95.599C10.6467 95.2081 10.3499 94.7557 10.1364 94.2671C9.59707 93.0438 9.61517 91.6467 10.187 90.4415C10.2087 90.3908 10.2377 90.3437 10.2703 90.2967L11.7542 88.1649C11.1932 87.3578 10.6866 86.5145 10.2377 85.6385C9.70209 84.5673 9.05426 83.5538 8.30867 82.6164L8.30484 82.6086ZM17.3459 64.9392L6.80271 81.1576L2.22424 78.1825L12.7712 61.9641L17.3497 64.9392H17.3459ZM48.8015 65.9056L54.987 79.5361C54.1183 79.9668 53.3583 80.5857 52.7575 81.3458C52.4535 81.7294 52.0915 82.0624 51.6862 82.3338L35.6745 73.2276C34.9723 72.8222 34.1254 72.7679 33.3798 73.0828C31.7474 73.8646 30.249 74.907 28.9497 76.1701C26.2678 78.5009 23.7343 80.7087 19.724 76.456H19.7277C21.3021 75.6308 22.7027 74.5124 23.8537 73.1588C24.8129 71.682 25.4064 69.9991 25.5874 68.2473C25.6018 68.1749 25.6272 68.1025 25.667 68.041C25.7104 67.9795 25.7611 67.9252 25.8226 67.8854C27.2414 66.9081 28.8774 66.3074 30.5893 66.13C32.5763 65.9273 34.585 66.1155 36.4997 66.6874L36.5757 66.7055C38.6749 67.1832 40.8321 67.3787 42.9856 67.2882C44.9871 67.1471 46.9523 66.6765 48.8054 65.9056L48.8015 65.9056ZM54.4513 61.5914L61.7588 77.6977L57.3178 79.71L50.0176 63.6038L54.4549 61.5914H54.4513ZM15.576 86.2683H15.5796C15.8764 86.0439 16.2347 85.9136 16.6075 85.8882C16.9948 85.8665 17.3784 85.9389 17.7331 86.1018C18.1095 86.2683 18.4461 86.518 18.7139 86.8329C18.9854 87.1441 19.17 87.5206 19.2568 87.9259L14.5553 94.7955C14.1029 94.9403 13.6107 94.9041 13.1835 94.6978C12.9302 94.5747 12.7022 94.4046 12.514 94.1983C12.3077 93.9775 12.1376 93.7206 12.0181 93.4455C11.7286 92.7976 11.7213 92.0593 11.9964 91.4042L15.5796 86.2611L15.576 86.2683ZM16.2781 95.9137L21.0484 88.9428C21.2945 88.8017 21.5696 88.7112 21.8482 88.675C22.2862 88.6243 22.7314 88.7004 23.1259 88.8958C23.5566 89.113 23.9221 89.4351 24.1899 89.8404C24.3926 90.1481 24.5374 90.4919 24.6206 90.8539L19.7055 97.7777H19.7092C19.4232 97.8899 19.1228 97.9551 18.8152 97.9732C18.341 98.0021 17.8669 97.9008 17.4506 97.6728C17.0453 97.4484 16.7195 97.1045 16.5169 96.6847C16.4011 96.4386 16.3214 96.178 16.2816 95.9102L16.2781 95.9137ZM21.4683 98.8381L26.405 91.8853L26.4014 91.8889C26.7742 91.7622 27.176 91.7767 27.5379 91.9251C27.8347 92.0301 28.1098 92.1857 28.3523 92.3812C28.602 92.5802 28.8156 92.8227 28.9821 93.0905C29.2716 93.5357 29.3549 94.0822 29.2173 94.5926L25.0442 100.745C24.7655 100.908 24.4506 101.017 24.1285 101.064C23.7123 101.115 23.2888 101.039 22.916 100.847C22.5107 100.63 22.1668 100.311 21.9207 99.9239C21.7072 99.5909 21.5515 99.2253 21.4683 98.8381ZM26.8503 101.734L30.7809 95.9317C31.3491 95.787 31.9499 95.8449 32.4819 96.0946C32.6991 96.2032 32.8909 96.3516 33.0466 96.5362C33.1986 96.7171 33.3108 96.9307 33.3795 97.1587C33.5424 97.7523 33.4664 98.382 33.1732 98.9249L30.1946 103.134C29.8869 103.337 29.5358 103.471 29.1666 103.525C28.8047 103.576 28.4319 103.518 28.099 103.359C27.7588 103.192 27.462 102.939 27.2484 102.624C27.0638 102.352 26.9263 102.052 26.8467 101.734L26.8503 101.734Z" fill="black"/>
</svg>
