<svg width="110" height="120" viewBox="0 0 110 120" fill="none" xmlns="http://www.w3.org/2000/svg">
<g clip-path="url(#clip0_2547_1101)">
<path d="M93.4275 55.3908C91.8281 50.2646 88.3105 46.2523 83.91 43.895L83.9146 25.2943C83.9146 24.5779 83.3368 24 82.6203 24H0.961315C0.244846 24 -0.333008 24.5778 -0.333008 25.2943V78.4884C-0.333008 79.2049 0.244787 79.7827 0.961315 79.7827H30.4746V88.8749H23.689C22.9725 88.8749 22.3947 89.4527 22.3947 90.1692C22.3947 90.8857 22.9725 91.4635 23.689 91.4635H59.8869C60.6034 91.4635 61.1812 90.8857 61.1812 90.1692C61.1812 89.4528 60.6035 88.8749 59.8869 88.8749H53.1013V79.7873H67.939C70.0607 80.5546 72.321 80.966 74.6275 80.966C74.8216 80.966 75.0158 80.9614 75.2053 80.9568L79.3239 94.01C79.8462 95.6556 81.3716 96.7142 83.0079 96.7094C83.3869 96.7094 83.7706 96.654 84.145 96.5338L85.4115 96.1409C87.4407 95.5076 88.5733 93.3397 87.9446 91.3152L83.9785 78.6039C87.4129 76.7595 90.2187 73.9399 92.0676 70.413C94.5128 65.7491 94.9992 60.415 93.4275 55.3908ZM81.3256 26.5934V42.7434C77.4151 41.3198 73.0238 41.1163 68.7575 42.4476C64.944 43.6355 61.75 45.8866 59.3925 48.771C59.3648 48.771 59.3417 48.7664 59.3139 48.7664H48.9275V36.9012C48.9275 36.1847 48.3497 35.6069 47.6332 35.6069H35.9525C35.236 35.6069 34.6582 36.1847 34.6582 36.9012V41.6345H25.566V31.003C25.566 30.2866 24.9882 29.7087 24.2716 29.7087H12.5863C11.8698 29.7087 11.292 30.2865 11.292 31.003V65.7999C11.292 66.5164 11.8698 67.0942 12.5863 67.0942H55.8014C55.806 67.1081 55.8106 67.1174 55.8106 67.1266C56.185 68.3238 56.6657 69.4609 57.2343 70.5287H2.25575V26.5929L81.3256 26.5934ZM55.1812 64.5012H48.9225V51.3557H57.594C55.3429 55.2338 54.4093 59.8654 55.1812 64.5012ZM25.5614 64.5012V44.2178H34.6536V64.5012H25.5614ZM22.9728 64.5012H13.876V32.2923H22.9728V64.5012ZM37.2426 38.1959H46.3348V64.506H37.2426V38.1959ZM50.5136 88.8801H33.069V79.7879H50.5136V88.8801ZM2.25634 77.1948V73.1179H58.8844C60.0723 74.6894 61.4775 76.0623 63.0445 77.1948H2.25634ZM85.4773 92.0834C85.6853 92.749 85.3109 93.4609 84.6453 93.6688L83.3788 94.0617C82.7178 94.2697 82.0106 93.8907 81.798 93.2251L77.8411 80.6936C78.724 80.5457 79.6069 80.3423 80.4852 80.065C80.8642 79.9448 81.2386 79.8154 81.6038 79.6767L85.4773 92.0834ZM89.7761 69.2073C87.6544 73.2565 84.0813 76.2333 79.7132 77.5969C78.0214 78.1238 76.3111 78.3734 74.6239 78.3734C67.3344 78.3734 60.5577 73.6724 58.2751 66.3556C58.1919 66.0921 58.118 65.8286 58.0486 65.5651C58.0394 65.505 58.0255 65.4496 58.007 65.3941C55.8299 56.6717 60.8313 47.6253 69.5214 44.9166C78.5304 42.1109 88.1445 47.1538 90.9549 56.1629C92.3185 60.5264 91.9024 65.1587 89.7761 69.2073ZM81.7424 58.012L75.8257 47.7689C75.5946 47.3667 75.1647 47.1217 74.7071 47.1217C74.2449 47.1217 73.815 47.3667 73.5885 47.7689L61.7552 68.2641C61.5241 68.6662 61.5241 69.1562 61.7552 69.5584C61.9864 69.9606 62.4162 70.2055 62.8739 70.2055H86.5356C86.9979 70.2055 87.4278 69.9606 87.6543 69.5584C87.8854 69.1563 87.8854 68.6663 87.6543 68.2641L81.7424 58.012ZM65.1154 67.6173L74.7069 51.0046L79.5049 59.3063L84.2983 67.6173H65.1154ZM76.0011 55.7932V61.0581C76.0011 61.7746 75.4233 62.3524 74.7068 62.3524C73.9903 62.3524 73.4125 61.7746 73.4125 61.0581V55.7932C73.4125 55.0768 73.9902 54.4989 74.7068 54.4989C75.4186 54.4989 76.0011 55.0767 76.0011 55.7932ZM76.0011 64.1875V64.5065C76.0011 65.2229 75.4233 65.8008 74.7068 65.8008C73.9903 65.8008 73.4125 65.223 73.4125 64.5065V64.1875C73.4125 63.4711 73.9902 62.8932 74.7068 62.8932C75.4186 62.8932 76.0011 63.4756 76.0011 64.1875Z" fill="black" stroke="white" stroke-width="0.3"/>
</g>
<defs>
<clipPath id="clip0_2547_1101">
<rect width="110" height="120" fill="white"/>
</clipPath>
</defs>
</svg>
